<ttFont>
          <CharString index="0">
            rmoveto
            -6 64 157 -104 callgsubr
            232 hhcurveto
            338 192 218.99000549316406 211.99000549316406 246 -237.02000427246094 103 -202 96.00999450683594 hvcurveto
            -215 -51 callsubr
            -147 220 callsubr
            175.99000549316406 vvcurveto
            166 110 81 202.02000427246094 116 -18 callsubr
            -34 -24 28.020004272460938 vhcurveto
            37.99000549316406 -255 rlineto
            131 callgsubr
            hlineto
            13 337 rlineto
            10 -60 -144 63 -184 hhcurveto
            -283 -199 -155 -230.99000549316406 -264.00999450683594 248 -110 169 353 callgsubr
            207 93 callgsubr
            161 191 callgsubr
            -180 vvcurveto
            -173 -117 -112 -226 -141 -121 45.02000427246094 46 -48 vhcurveto
            -30 callgsubr
            268.97999572753906 rlineto
            -105 hlineto
            -17 -366 rlineto
            return
          </CharString>
          <CharString index="1">
            34 78.99000549316406 77 233 244 748.0099945068359 57 callsubr
            24 rcurveline
            -91 callsubr
            -394.02000427246094 -22 callsubr
            157 callsubr
            -24 -192 -625.0099945068359 -102.00999450683594 -334.99000549316406 -106.99000549316406 333 -215.02000427246094 627 165 24 39 callsubr
            -452 -22 callsubr
            97 -25 391 -1026.990005493164 217 callsubr
            hlineto
            -315 -114 -109 -42 -110 hhcurveto
            -36 -52 5 8.009994506835938 -16 hvcurveto
            return
          </CharString>
          <CharString index="2">
            -75 vlineto
            -80.99000549316406 27.020004272460938 -6 59 62 -27 callsubr
            19.990005493164062 12 45.02000427246094 vhcurveto
            76 -128 675 vlineto
            287 -95 109 -278 -188 -216 -117 -36 -55 callsubr
            vhcurveto
            45 84 callgsubr
            rlineto
            1 hlineto
            37.99000549316406 65 135.99000549316406 72.00999450683594 159 hhcurveto
            193 53 -78.00999450683594 -203 hvcurveto
            return
          </CharString>
          <CharString index="3">
            87.97999572753906 return
          </CharString>
          <CharString index="4">
            rmoveto
            -384 -187 -290 -324.02000427246094 2 hvcurveto
            -321.97999572753906 -70 callgsubr
            174 -254.99000549316406 333 hhcurveto
            141 95 callgsubr
            69.97999572753906 76 75.02000427246094 hvcurveto
            -33.02000427246094 68.02000427246094 rlineto
            -44.02000427246094 -59.99000549316406 -116.02000427246094 96 callsubr
            -124.99000549316406 hhcurveto
            -208 -162 -60 callgsubr
            356 -70 callgsubr
            hvcurveto
            354 callsubr
            1 139 170.99000549316406 210 hhcurveto
            -74 callgsubr
            81 -12.990005493164062 -49 11 hvcurveto
            202 callsubr
            -194.99000549316406 rlineto
            2 callsubr
            hlineto
            5 callgsubr
            291.97999572753906 rlineto
            23 -53 -115 39 -120 hhcurveto
            endchar
          </CharString>
          <CharString index="5">
            28 callsubr
            228 callgsubr
            7 vhcurveto
            378 7 298 307.9700012207031 483 vvcurveto
            459 -226 304 -415 240 callsubr
            119 callgsubr
            279 callgsubr
            55 callsubr
            300.00999450683594 169 -275 -393.00999450683594 -464 -194 -236 -281 -302 -170 284 392 vhcurveto
            endchar
          </CharString>
          <CharString index="6">
            377 -5 25 -175 rlineto
            104 452 -104 hlineto
            -25 -169.99000549316406 -377 -6 rlineto
            595.9900054931641 vlineto
            547.9799957275391 -42 callgsubr
            56.02000427246094 -197 rlineto
            97 hlineto
            -28 301 rlineto
            -1013 -88 hlineto
            73 callgsubr
            return
          </CharString>
          <CharString index="7">
            -98 callsubr
            452 45 callgsubr
            796 vlineto
            65 84 140.99000549316406 70.99000549316406 117 hhcurveto
            198 34 -114 -238 hvcurveto
            -581 vlineto
            -140.99000549316406 90 callsubr
            460 186 callsubr
            15.009994506835938 rlineto
            580 vlineto
            328.00999450683594 -62 83 callsubr
            -265.00999450683594 -153 -190 295 callgsubr
            -89 vhcurveto
            2 51 rlineto
            91 vlineto
            -40 183 callsubr
            -261 -32 rlineto
            -92 vlineto
            144 callsubr
            -36 rlineto
            -896.9900054931641 vlineto
            -138 -56 callgsubr
            return
          </CharString>
          <CharString index="8">
            rmoveto
            -261 -263.99000549316406 -220 -372 -322.00999450683594 138 -276.97999572753906 368 261 264.99000549316406 218.99000549316406 373 321.97999572753906 -139 277.00999450683594 -368 hvcurveto
            return
          </CharString>
          <CharString index="9">
            rmoveto
            -104 callgsubr
            return
          </CharString>
          <CharString index="10">
            rmoveto
            -338 -6 -349 -90.99000549316406 -286 vvcurveto
            -223 -34 callgsubr
            -98.97999572753906 182 173 135 121.97000122070312 44.02000427246094 3 callgsubr
            vhcurveto
            hintmask 01111100
            -105 callsubr
            hintmask 10111100
            -64 vlineto
            -459 vmoveto
            -64 -82 -120.02000427246094 -60 -82 hhcurveto
            148 callsubr
            96 callgsubr
            57.02000427246094 163 156 164 109 341.00999450683594 2 hvcurveto
            -363 vlineto
            endchar
          </CharString>
          <CharString index="11">
            vlineto
            3.0200042724609375 -10 callgsubr
            76 9.990005493164062 93 hhcurveto
            415.00999450683594 206.99000549316406 -223 -445.99000549316406 -445.00999450683594 145 callsubr
            -237 -330.02000427246094 -6 hvcurveto
            -94 -32 callsubr
            -58 callgsubr
            -45 callsubr
            -98 18 rrcurveto
            return
          </CharString>
          <CharString index="12">
            117.99000549316406 117 -14 -32 callsubr
            98.02000427246094 hvcurveto
            455.99000549316406 -11 321 331.97999572753906 501 vvcurveto
            439.99000549316406 -219 292 -532.0099945068359 vhcurveto
            -121 -115 -16 -126.02000427246094 hhcurveto
            -247.99000549316406 -88 hlineto
            164 -23 rlineto
            return
          </CharString>
          <CharString index="13">
            1487.990005493164 rmoveto
            -64 39 246 callgsubr
            184 callsubr
            -1 hlineto
            -80 -40 -86 callgsubr
            return
          </CharString>
          <CharString index="14">
            -104 callgsubr
            242 callgsubr
            -99 callgsubr
            -181 -24 callsubr
            57 callsubr
            325 rlineto
            639 hlineto
            109 -326 -180 -73 callsubr
            500 -99 callgsubr
            return
          </CharString>
          <CharString index="15">
            rmoveto
            -70.97999572753906 38 -76 callsubr
            65.99000549316406 71 53 18 12.979995727539062 46 vhcurveto
            1 78 rlineto
            -127 1047 hlineto
            -46 24 rlineto
            -2 hlineto
            -274 21 callsubr
            157 -35.97999572753906 rlineto
            return
          </CharString>
          <CharString index="16">
            83.99000549316406 return
          </CharString>
          <CharString index="17">
            60.99000549316406 return
          </CharString>
          <CharString index="18">
            -183 -80 callgsubr
            212.00999450683594 97 callsubr
            187 callsubr
            -70.010009765625 232 callsubr
            -100.989990234375 163 hintmask 0000000000000000
            hintmask 1011101100000000
            215.97999572753906 51 callsubr
            92 callsubr
            23 callgsubr
            -39.02000427246094 -86 callgsubr
            340 callsubr
            40.02000427246094 26 callgsubr
            -79.99000549316406 -40.02000427246094 -86 callgsubr
            hintmask 1011110010000000
            127.02000427246094 -806.0099945068359 -97 callgsubr
          </CharString>
          <CharString index="19">
            rmoveto
            -87 1114.990005493164 vlineto
            77 350.99000549316406 96 callgsubr
            173 callgsubr
            314 callgsubr
            -256 -627 169 callgsubr
            635 vlineto
            371 -5 24.990005493164062 -176 rlineto
            318 callsubr
            452 -103.00999450683594 196 callgsubr
            -169 -371 -5.9799957275390625 rlineto
            598 vlineto
            542.9900054931641 -9.020004272460938 62 -206.99000549316406 rlineto
            97 hlineto
            -35 308 rlineto
            -1380 -85 hlineto
            278 -22.020004272460938 -588.9799957275391 -1309 -150 132 callgsubr
            rlineto
            -87 229 callgsubr
            vlineto
            hintmask 10111111
            87 vlineto
            -160 19.990005493164062 144 343 rlineto
            554 hlineto
            hintmask 01111111
            -344 vlineto
            431 callsubr
            132 callgsubr
            rlineto
            -327 470 rmoveto
            -24 callgsubr
            604 113 263 rlineto
            143 -867 -508.99000549316406 hlineto
            endchar
          </CharString>
          <CharString index="20">
            rmoveto
            -256.97999572753906 vlineto
            -36 66.00999450683594 175.99000549316406 -50.99000549316406 8 callsubr
            hhcurveto
            -24 callgsubr
            171 120.99000549316406 204.99000549316406 205 -172.02000427246094 73.00999450683594 -180.97999572753906 351 callgsubr
            return
          </CharString>
          <CharString index="21">
            rmoveto
            351 226 281.97999572753906 351 392.99000549316406 -220 165 -228 -171.99000549316406 -126.02000427246094 -90 -74 472 callgsubr
            13 callsubr
            vlineto
            -37 183 callsubr
            -262 -32 rlineto
            -92 vlineto
            160 -36 rlineto
            -1385.979995727539 vlineto
            -158 111 callgsubr
            rlineto
            -91.02000427246094 548.9900054931641 91.02000427246094 vlineto
            -227 74 callgsubr
            rlineto
            220 vlineto
            -4 267 callsubr
            rlineto
            -19.979995727539062 56 96.00999450683594 -13 -35 callsubr
            hhcurveto
            -221 945.9900054931641 rmoveto
            52 48 106 201 callsubr
            128 hhcurveto
            92 callgsubr
            158 -134 -326.97999572753906 -45 callgsubr
            hvcurveto
            -349 -5 -166 -158 -219 hhcurveto
            -113 -97 36.99000549316406 33 -38 callgsubr
            hvcurveto
            779 vlineto
            endchar
          </CharString>
          <CharString index="22">
            251 callsubr
            479 vlineto
            442 824 136 23 rlineto
            88 -445.00999450683594 258 callsubr
            -297 -580 -79.02000427246094 -164 -26 callgsubr
            164 -310 580 173 23 rlineto
            88 -490.99000549316406 -88 vlineto
            128 -24 472.99000549316406 -825 rlineto
            -478 vlineto
            return
          </CharString>
          <CharString index="23">
            -136 57 -135 38 156 vvcurveto
            100 94 64 134 -2 vhcurveto
            92 83 -28 -36 19 hvcurveto
            35.99000549316406 -147.99000549316406 rlineto
            101 243 hlineto
            16 -43 -110 47 -163 hhcurveto
            -213 -183 -110 -181 -186 2 callsubr
            -98 214 -77 hvcurveto
            return
          </CharString>
          <CharString index="24">
            -104 callsubr
            -98 callsubr
            return
          </CharString>
          <CharString index="25">
            -303 385 160 68 callgsubr
            -444 -88 vlineto
            144 8 callgsubr
            340 -405.00999450683594 -193 -92 -159.99000549316406 -379 -107.00999450683594 -34 rlinecurve
            -26 callgsubr
            -25 callsubr
            -64 callsubr
            vlineto
            166 175 546.9700012207031 128 callsubr
            hhcurveto
            167 -439.99000549316406 hlineto
            -163 -73 callsubr
            505 -99 callgsubr
            -182.99000549316406 19 rlineto
            439.00999450683594 return
          </CharString>
          <CharString index="26">
            -90 callsubr
            -10 callsubr
            57.02000427246094 -36 -90 callsubr
            return
          </CharString>
          <CharString index="27">
            61.99000549316406 72.00999450683594 58 return
          </CharString>
          <CharString index="28">
            -104 callgsubr
            219 callsubr
            -99 callgsubr
            -191 15.009994506835938 rlineto
            1547 vlineto
            -40 28 rlineto
            -1 hlineto
            -301 -36 rlineto
            -75 vlineto
            176 -18 rlineto
            -1444.990005493164 216 callgsubr
            return
          </CharString>
          <CharString index="29">
            727.9799957275391 -41 callsubr
            -519.9900054931641 768 rmoveto
            -83 634 83 vlineto
            -226 74 callgsubr
            rlineto
            908 vlineto
            -86.02000427246094 15.009994506835938 rlineto
            -45 callgsubr
            hlineto
            -115 -88 -121.02000427246094 -41 238 callgsubr
            -32 20 -92 rcurveline
            86 18 99 23 84 35 rrcurveto
            -747 vlineto
            -263 111 callgsubr
            rlineto
            return
          </CharString>
          <CharString index="30">
            -98 callsubr
            1065 vlineto
            75 376 callgsubr
            -98 17 181 callgsubr
            -320.97999572753906 -582.9900054931641 233 callgsubr
            340 callgsubr
            204 22 rlineto
            88 -544.0099945068359 -88 vlineto
            171 511 callgsubr
            return
          </CharString>
          <CharString index="31">
            -16.020004272460938 return
          </CharString>
          <CharString index="32">
            51 callsubr
            39 23 callgsubr
            -39 -86 callgsubr
            340 callsubr
            40 26 callgsubr
            -80 -40 -86 callgsubr
            return
          </CharString>
          <CharString index="33">
            8 -67 callsubr
            186.00999450683594 61 callsubr
            -20 callgsubr
            -106 156 callsubr
            -205.989990234375 104 hintmask 00000000
            hintmask 11110110
            340.99000549316406 186 callgsubr
            83 -44 callsubr
            0.9799957275390625 hlineto
            84.00999450683594 -43 callgsubr
            63 callsubr
            -40 -66.99000549316406 -69 hvcurveto
            -723.9900054931641 -1737.009994506836 -61 callgsubr
            rlineto
            hintmask 11101001
            36 callgsubr
            -101 callsubr
            hintmask 11110110
            287 callgsubr
          </CharString>
          <CharString index="34">
            -19 -92 callgsubr
            return
          </CharString>
          <CharString index="35">
            rmoveto
            443 -1420.979995727539 rlineto
            149 hlineto
            326 1071.979995727539 rlineto
            hintmask 10110000
            331 -1071.979995727539 rlineto
            144 callsubr
            hlineto
            hintmask 10101000
            419 1421.990005493164 302 callsubr
            23 rlineto
            88 -485 -88 vlineto
            215 -23 -274 -972 -66.99000549316406 -348 63 callsubr
            348 -289 972 203 23 rlineto
            88 -531.9900054931641 -88 vlineto
            151 -23 56 -172 -246 -800.0099945068359 rlineto
            hintmask 01110000
            -80 -325 -66.99000549316406 325 -298 972 201 265 callgsubr
            141.97999572753906 -24 rlineto
            endchar
          </CharString>
          <CharString index="36">
            53 0 -27 callsubr
            653 105 600.989990234375 78 hstemhm
            -20 callgsubr
            571 168.97999572753906 143 callsubr
            183 hintmask 11110100
            86 callgsubr
            97 callsubr
            vlineto
            490 callsubr
            69 -12 99 hhcurveto
            475 142 227 239.99000549316406 216 -152 149 338 callgsubr
            158 callsubr
            hvcurveto
            hintmask 11111000
            199 40 -15 callgsubr
            159 185 vvcurveto
            216 -139 128 -367 vhcurveto
            -100.99000549316406 -95 -16 -122 hhcurveto
            -256 -88 hlineto
            73 callgsubr
            hintmask 11110100
            276 callsubr
            344 758 rmoveto
            585.0099945068359 vlineto
            -45 callsubr
            40 -35 callsubr
            12 100 hhcurveto
            hintmask 11111000
            188 callgsubr
            87.02000427246094 -98 -190 -201 -112 401 callsubr
            -207 hvcurveto
            hintmask 11110100
            4 callsubr
            -136 -1 4 284 callgsubr
            hvcurveto
            -743 vmoveto
            633 vlineto
            -19 callgsubr
            -90 callsubr
            158 265 callsubr
            74 hhcurveto
            406 callsubr
            109 255 callsubr
            -219 -207 -117 146 callgsubr
            -317.99000549316406 -70 238 callgsubr
            2 16 -52 hvcurveto
            endchar
          </CharString>
          <CharString index="37">
            -38 callsubr
            endchar
          </CharString>
          <CharString index="38">
            112.5 619.9799957275391 101.50999450683594 588.5000152587891 -55 callgsubr
            return
          </CharString>
          <CharString index="39">
            -67 callgsubr
            endchar
          </CharString>
          <CharString index="40">
            0 -69 callsubr
            return
          </CharString>
          <CharString index="41">
            79.02000427246094 219 callgsubr
            1555.990005493164 vlineto
            -55 callsubr
            29 rlineto
            -5 hlineto
            -335.02000427246094 -34 rlineto
            -75 vlineto
            213.02000427246094 -19 rlineto
            -406 328 callgsubr
            -61 -76 11 -80 hhcurveto
            return
          </CharString>
          <CharString index="42">
            rmoveto
            -647.9900054931641 -834.0099945068359 36.99000549316406 -28 callsubr
            642 224 callsubr
            -852.0099945068359 237 callgsubr
            -128 -119.99000549316406 rlineto
            endchar
          </CharString>
          <CharString index="43">
            165.99000549316406 return
          </CharString>
          <CharString index="44">
            168 32.02000427246094 181 124 129 callgsubr
            vvcurveto
            236.02000427246094 203 callgsubr
            -56 callsubr
            359 callsubr
            228 callsubr
            -152 -62 -5 -86.02000427246094 vhcurveto
            17.020004272460938 -303 rlineto
            -52 callgsubr
            hlineto
            35 184 rlineto
            46 31 93 39 109 callsubr
            hhcurveto
            184.02000427246094 13 callsubr
            -75.02000427246094 -196 1 hvcurveto
            298 callgsubr
            1 -187 254 callgsubr
            -171.99000549316406 hhcurveto
            -122 -99 162 callsubr
            hlineto
            return
          </CharString>
          <CharString index="45">
            136 callsubr
            22 -40 callsubr
            return
          </CharString>
          <CharString index="46">
            610 0 218 callgsubr
            1300 110 hstem
            278.99000549316406 -60 callgsubr
            1026.009994506836 157 callgsubr
            vstem
            1087 116.97999572753906 rmoveto
            -116.97999572753906 665.9900054931641 vlineto
            56 392.99000549316406 rlineto
            362 callsubr
            hlineto
            356 callsubr
            -257 -401.02000427246094 -42 callgsubr
            193 129 211 355.97999572753906 5 289.02000427246094 rlinecurve
            417 6 -256 222 -412 hhcurveto
            -355 -333 -181 -469 137 callgsubr
            hvcurveto
            303 callsubr
            -316 257 -350 178 -99 -412 10 rcurveline
            284 callgsubr
            258.00999450683594 rlineto
            189 callsubr
            hlineto
            40.97999572753906 -392.99000549316406 rlineto
            683 116.97999572753906 hlineto
            -169 148 callgsubr
            -239 323.99000549316406 324.02000427246094 vvcurveto
            413.99000549316406 214 161.02000427246094 316 303 193 -178.02000427246094 -371 -326 -178 -316 -204.99000549316406 -122 vhcurveto
            endchar
          </CharString>
          <CharString index="47">
            -292 19 rlineto
            1322 vlineto
            394.02000427246094 -11 57 -417.00999450683594 rlineto
            110 hlineto
            -23 521.0099945068359 rlineto
            18 callsubr
            return
          </CharString>
          <CharString index="48">
            167 23 rlineto
            88 -466 -88 vlineto
            180 -23 rlineto
            -1145 vlineto
            -116 205 -725 1051 rlineto
            -329.99000549316406 -88 hlineto
            163 296 callgsubr
            return
          </CharString>
          <CharString index="49">
            7.9900054931640625 return
          </CharString>
          <CharString index="50">
            -218 -23 -8 callgsubr
            384.00001525878906 106 return
          </CharString>
          <CharString index="51">
            107.99000549316406 return
          </CharString>
          <CharString index="52">
            -37.99000549316406 return
          </CharString>
          <CharString index="53">
            12 83 callgsubr
            939.989990234375 128 366 callgsubr
            316 callgsubr
            -83 callsubr
            461 callsubr
            87.97999572753906 vlineto
            -152 124 callsubr
            86 140 70 116 hhcurveto
            202.02000427246094 34 95 callsubr
            -239 hvcurveto
            -580 vlineto
            358 callsubr
            33 callsubr
            459.02000427246094 -99 callgsubr
            378 callgsubr
            11 callgsubr
            486.00999450683594 286 callsubr
            -5 hlineto
            -302 -35 rlineto
            -75 vlineto
            180.99000549316406 -18 rlineto
            -1445.990005493164 vlineto
            -128 233 callgsubr
            endchar
          </CharString>
          <CharString index="54">
            180 72 49 110 99 vvcurveto
            127 181 callgsubr
            100 -186.99000549316406 -154 -133 -41 -21 callsubr
            -21 callsubr
            vhcurveto
            50 -81 rlineto
            46 58 -51 callsubr
            32 2 callsubr
            hhcurveto
            135 2 callgsubr
            -57 -88 1 hvcurveto
            1 -94 -81 -65 -86 -43 -60 -29 -56 -17 -30 137 callgsubr
            30.990005493164062 -91.02000427246094 rcurveline
            28.020004272460938 11 69 163 callsubr
            24 11 rrcurveto
            return
          </CharString>
          <CharString index="55">
            293 callsubr
            104 -57 -119 vvcurveto
            -111 -68 -75 -183 -111 -108 46 43 -28 vhcurveto
            -31 144 callsubr
            rlineto
            -110 hlineto
            return
          </CharString>
          <CharString index="56">
            101.99000549316406 return
          </CharString>
          <CharString index="57">
            rmoveto
            44.970001220703125 -26 callgsubr
            177 33 194 129 46.99000549316406 129 callgsubr
            rlinecurve
            25 126 -45 callgsubr
            167 227 vvcurveto
            846.9900054931641 vlineto
            194.99000549316406 22 callgsubr
            -43 -138 189 callsubr
            -92 -121.97999572753906 -33.02000427246094 rrcurveto
            endchar
          </CharString>
          <CharString index="58">
            30.990005493164062 rlineto
            88 return
          </CharString>
          <CharString index="59">
            vhcurveto
            1 hlineto
            -91 callsubr
            40 -90 callsubr
            73.00999450683594 58 return
          </CharString>
          <CharString index="60">
            -98 callsubr
            633 -99 callgsubr
            -85 callsubr
            -227.99000549316406 -19 rlineto
            endchar
          </CharString>
          <CharString index="61">
            698 -22 callgsubr
            1325.510009765625 99 hstem
            130 callsubr
            2012.990005493164 vstem
            130 callsubr
            -83 callsubr
            517 -99 callgsubr
            -202 421 callgsubr
            202 callsubr
            460 callsubr
            128 491 callsubr
            384 -979 rlineto
            72.00999450683594 hlineto
            337 1093 -74 callgsubr
            284 502 callsubr
            -411 147 -933 203 callgsubr
            -73 callsubr
            546 -99 callgsubr
            -183 -24 callsubr
            -218.99000549316406 1303 235 23 rlineto
            88 -476.02000427246094 vlineto
            -297 -945.9900054931641 -62 -274 -78 274 503 callsubr
            945.9900054931641 rlineto
            -479 -88 hlineto
            232 -22 -162 -1305 -179 -19 rlineto
            endchar
          </CharString>
          <CharString index="62">
            0.9900054931640625 return
          </CharString>
          <CharString index="63">
            -28 callgsubr
            192 callsubr
            hmoveto
            -64 87 callgsubr
            return
          </CharString>
          <CharString index="64">
            -23 rlineto
            -1304 return
          </CharString>
          <CharString index="65">
            160.99000549316406 return
          </CharString>
          <CharString index="66">
            -136 rmoveto
            124 -10 757 1800.990005493164 -122 -20 callsubr
            -759.0099945068359 -1805 rlineto
            return
          </CharString>
          <CharString index="67">
            -18 -41.99000549316406 vvcurveto
            -63 -29 -63.02000427246094 -40 -34 callsubr
            vhcurveto
            -13 vlineto
            return
          </CharString>
          <CharString index="68">
            295 callsubr
            52 -81 261 -227 75 275 callgsubr
            1 hlineto
            59 464 callgsubr
            -128 -111 rlineto
            return
          </CharString>
          <CharString index="69">
            70 callgsubr
            375 callgsubr
            hlineto
            -59 callsubr
            -163 169 callgsubr
            return
          </CharString>
          <CharString index="70">
            -26 callgsubr
            vlineto
            120 callsubr
            29 -9.020004272460938 57 145 callgsubr
            64 19 12.979995727539062 53 vhcurveto
            return
          </CharString>
          <CharString index="71">
            16.020004272460938 rlineto
            return
          </CharString>
          <CharString index="72">
            72.99000549316406 return
          </CharString>
          <CharString index="73">
            -20.990005493164062 return
          </CharString>
          <CharString index="74">
            217 266 -217 75 45 -264.99000549316406 296 rlineto
            -154 hlineto
            -262 -297.97999572753906 rlineto
            return
          </CharString>
          <CharString index="75">
            -1.9900054931640625 return
          </CharString>
          <CharString index="76">
            59.99000549316406 return
          </CharString>
          <CharString index="77">
            -80 callsubr
            -37 37 callsubr
            return
          </CharString>
          <CharString index="78">
            -151 -48 callgsubr
            hstemhm
            130 callsubr
            451.99000549316406 -451.99000549316406 1153 -394.010009765625 394.00999450683594 hintmask 11101000
            return
          </CharString>
          <CharString index="79">
            -76.97999572753906 rlineto
            907 hlineto
            30 332.97999572753906 -104 -20 callsubr
            -65 -224 -612 132 callgsubr
            130 117 return
          </CharString>
          <CharString index="80">
            84.99000549316406 return
          </CharString>
          <CharString index="81">
            196 callgsubr
            38 callsubr
            21 136 callsubr
            163 callsubr
            -18 -41.99000549316406 vvcurveto
            -63 -29 -63.02000427246094 return
          </CharString>
          <CharString index="82">
            -20.009994506835938 -92 callgsubr
            return
          </CharString>
          <CharString index="83">
            20.009994506835938 return
          </CharString>
          <CharString index="84">
            -53 64 vhcurveto
            1 -9 callsubr
            return
          </CharString>
          <CharString index="85">
            -58 callgsubr
            vlineto
            return
          </CharString>
          <CharString index="86">
            -67.00999450683594 return
          </CharString>
          <CharString index="87">
            14.009994506835938 return
          </CharString>
          <CharString index="88">
            82 0 0 callsubr
            return
          </CharString>
          <CharString index="89">
            100.99000549316406 return
          </CharString>
          <CharString index="90">
            1215 hmoveto
            245 -27 callsubr
            hlineto
            255 callsubr
            23 -9 callgsubr
            11 -299.00999450683594 587 -206 179 rlinecurve
            472 527.0099945068359 148 22 rlineto
            88 -474.00999450683594 -88 vlineto
            313 callsubr
            -22 -640 -746 rlineto
            745 vlineto
            175.99000549316406 23 rlineto
            88 -516 -88 vlineto
            171 511 callgsubr
            -87.97999572753906 536.9900054931641 -27 callsubr
            vlineto
            -192.99000549316406 22 rlineto
            413 vlineto
            298 callsubr
            252 rlineto
            -195 191.02000427246094 334 callgsubr
            -576.9799957275391 57 callsubr
            hhcurveto
            return
          </CharString>
          <CharString index="91">
            hlineto
            -25 361 callgsubr
            16 callsubr
            144 callgsubr
            -18 122 callgsubr
            -63 callgsubr
            hvcurveto
            21 -62 callsubr
            54 -55 callsubr
            rlineto
            2 hlineto
            endchar
          </CharString>
          <CharString index="92">
            704 17.979995727539062 rlineto
            -401.97999572753906 120 callgsubr
            -210 -239 -270 hhcurveto
            -182.99000549316406 158 callgsubr
            58 33 361 callsubr
            hvcurveto
            -86.02000427246094 182 -104.99000549316406 -25 174 callsubr
            -274 rlineto
            106 87 -77.97999572753906 222 hhcurveto
            413 297 314.97999572753906 454 467 -255 325 -433 -260 63 callsubr
            -74 -4 -109 hvcurveto
            -42 callgsubr
            -312.00999450683594 rlineto
            121 hlineto
            3 callgsubr
            188 rlineto
            45 55 -10 callgsubr
            56 169 hhcurveto
            308 160 -274 -327 27 hvcurveto
            return
          </CharString>
          <CharString index="93">
            -162 210 200 124 163 176 15 -2 15.009994506835938 -1 -6 callgsubr
            422 callgsubr
            -45 callsubr
            -7 -47 callgsubr
            330 callgsubr
            -7 -54 148 callsubr
            -167 hhcurveto
            -168 487 callsubr
            return
          </CharString>
          <CharString index="94">
            vvcurveto
            -125.99000549316406 -54.99000549316406 -38 callgsubr
            -100 vhcurveto
            -1 hlineto
            return
          </CharString>
          <CharString index="95">
            105.99000549316406 return
          </CharString>
          <CharString index="96">
            1 callgsubr
            190.989990234375 252 hstemhm
            296.97999572753906 228 -203 170 hintmask 00000000
            hintmask 11110000
            296.97999572753906 15 callgsubr
            -174.99000549316406 180 callgsubr
            vlineto
            hintmask 11001000
            569 87 hlineto
            -93 callgsubr
            hintmask 11110000
            369 callsubr
          </CharString>
          <CharString index="97">
            73.99000549316406 return
          </CharString>
          <CharString index="98">
            392 callgsubr
            322 callsubr
            return
          </CharString>
          <CharString index="99">
            33 69 callgsubr
            rlineto
            122 callgsubr
            31 92 40 192 callgsubr
            hhcurveto
            194 64 259 callgsubr
            -116 -117 -98 -87 -182 -34 callsubr
            296 callsubr
            -11 rlineto
            -111 vlineto
            1 -19 callgsubr
            278 callsubr
            13 -70 callgsubr
            hhcurveto
            return
          </CharString>
          <CharString index="100">
            89.99000549316406 return
          </CharString>
          <CharString index="101">
            -551.9900054931641 104 446.99000549316406 192 callgsubr
            264 -18 callsubr
            508.00999450683594 152 -101.010009765625 101 return
          </CharString>
          <CharString index="102">
            -99 callsubr
            -338 -530 rmoveto
            280 13 278 callgsubr
            319 callsubr
            197 hhcurveto
            216 93 203 callgsubr
            -234 16 hvcurveto
            -655.0099945068359 hlineto
            658 108 callgsubr
            rmoveto
            -307 -45 callgsubr
            -122 -157 -205 hhcurveto
            -227 -93 208 256 -42 callgsubr
            hvcurveto
            658.9900054931641 hlineto
            endchar
          </CharString>
          <CharString index="103">
            -37 -23 9 callgsubr
            -121.99000549316406 -18 callgsubr
            return
          </CharString>
          <CharString index="104">
            54.99000549316406 return
          </CharString>
          <CharString index="105">
            543 0 -78 callgsubr
            358 callgsubr
            111 338.97999572753906 107 176.510009765625 101.5 590.489990234375 96.5 hstemhm
            -184.99000549316406 229 callgsubr
            537.9799957275391 167 396 318 callsubr
            hintmask 01111111
            return
          </CharString>
          <CharString index="106">
            10 callgsubr
            2 480 callsubr
            97 callsubr
            217 52 80 -127 111 rcurveline
            -1 hlineto
            -320 -394 rlineto
            return
          </CharString>
          <CharString index="107">
            -51 callgsubr
            335.5 106 876 122 return
          </CharString>
          <CharString index="108">
            -222 -1054 rmoveto
            312 callgsubr
            43 50 120 callgsubr
            55 hhcurveto
            254 hlineto
            223 35 -69 -113.99000549316406 -166 -217 -98 -215 473 callsubr
            hlineto
            -252 -74 87 148 97 43.99000549316406 75 56 53.97999572753906 hvcurveto
            endchar
          </CharString>
          <CharString index="109">
            102.00999450683594 return
          </CharString>
          <CharString index="110">
            hhcurveto
            360 224 78 callsubr
            349 392.99000549316406 -219.02000427246094 165 -228.99000549316406 -159 164 callgsubr
            -74.00999450683594 -68 -26 callgsubr
            hvcurveto
            622 vlineto
            -38 29 rlineto
            -4 hlineto
            -298.97999572753906 -35 rlineto
            -75 vlineto
            return
          </CharString>
          <CharString index="111">
            -53.99000549316406 return
          </CharString>
          <CharString index="112">
            391 callgsubr
            266 callsubr
            87.97999572753906 rmoveto
            -103 callgsubr
            return
          </CharString>
          <CharString index="113">
            rmoveto
            -19 41 62 -63 callgsubr
            65.99000549316406 hhcurveto
            208.02000427246094 59 219.99000549316406 129 callsubr
            52 hvcurveto
            return
          </CharString>
          <CharString index="114">
            -15.990005493164062 return
          </CharString>
          <CharString index="115">
            126.00999450683594 return
          </CharString>
          <CharString index="116">
            125.00999450683594 return
          </CharString>
          <CharString index="117">
            118 callsubr
            976.989990234375 107 return
          </CharString>
          <CharString index="118">
            -23 -78 callgsubr
            1368 -81 callgsubr
            60 callsubr
            return
          </CharString>
          <CharString index="119">
            hstem
            -81 callgsubr
            162 callgsubr
            560.0099945068359 53 callsubr
            vstem
            return
          </CharString>
          <CharString index="120">
            124.99000549316406 return
          </CharString>
          <CharString index="121">
            828.9900054931641 341 callsubr
            -50.02000427246094 260 callsubr
            74 callgsubr
            -19 callgsubr
            rrcurveto
            197 17 116.02000427246094 153 339.97999572753906 vvcurveto
            1116 vlineto
            79 callgsubr
            183 callsubr
            -282.99000549316406 90 callgsubr
          </CharString>
          <CharString index="122">
            1966.979995727539 rmoveto
            248 -274.97999572753906 rlineto
            155 102 callgsubr
            191 callgsubr
            -44 rlineto
            return
          </CharString>
          <CharString index="123">
            -63 callgsubr
            -75 -44.02000427246094 return
          </CharString>
          <CharString index="124">
            62 callgsubr
            56 39 callgsubr
            return
          </CharString>
          <CharString index="125">
            -1248.009994506836 hlineto
            -34 50 callgsubr
            return
          </CharString>
          <CharString index="126">
            1064 1879.979995727539 rmoveto
            -486.00999450683594 -384 -390.99000549316406 -486.00999450683594 -487 384 -394 486.00999450683594 192 callsubr
            385 394 487 486.00999450683594 -385 390.99000549316406 -485.99000549316406 hvcurveto
            -1658 vmoveto
            -430 -328 356 425 424 328 356 430 430 327.99000549316406 -356 -424 -425 -327.99000549316406 -356 -430 hvcurveto
            return
          </CharString>
          <CharString index="127">
            35 -27 callgsubr
            hvcurveto
            -122 hlineto
            -1 -11 -1 -12.990005493164062 257 callsubr
            vvcurveto
            return
          </CharString>
          <CharString index="128">
            -27 callgsubr
            rlineto
            -76 vlineto
            return
          </CharString>
          <CharString index="129">
            175.99000549316406 -49 callsubr
            -526.9900054931641 -88 vlineto
            69 callgsubr
            -30 callgsubr
            rlineto
            -914 -487 914 vlineto
            176 -49 callsubr
            -526.0099945068359 -88 vlineto
            378 callsubr
            -30 callgsubr
            -2 -914 rlineto
            -483 914 hlineto
            185 -49 callsubr
            -531 -88 vlineto
            183 167 callgsubr
            -189 -21 rlineto
            endchar
          </CharString>
          <CharString index="130">
            147 callgsubr
            424 callsubr
            301 callgsubr
            rmoveto
            404 callsubr
            398 callgsubr
            -7 callgsubr
            -65 hvcurveto
            130 callgsubr
            268 callgsubr
            -23 -186.97999572753906 333 callgsubr
            -32 vhcurveto
            132 callgsubr
            vlineto
            119 callsubr
            -48 rlineto
            2 hlineto
            78 41 157.99000549316406 92 callgsubr
            255.02000427246094 vvcurveto
            return
          </CharString>
          <CharString index="131">
            51 callsubr
            221 callsubr
            246 callgsubr
            227 callsubr
            -86 callgsubr
            340 callsubr
            40 -52 63 -88 callgsubr
            -37 91 callgsubr
            -1 hlineto
            -80 -40 -86 callgsubr
            return
          </CharString>
          <CharString index="132">
            rmoveto
            119 callsubr
            104 callsubr
            -98 21 -102.00999450683594 -321.99000549316406 -758.0099945068359 -36 133.02000427246094 160.02000427246094 802 484 callgsubr
            202 callgsubr
            -371 254 callsubr
            415 callgsubr
            -815.9900054931641 -1205.990005493164 rlineto
            endchar
          </CharString>
          <CharString index="133">
            -34.02000427246094 -35 -105.99000549316406 -41 -86.02000427246094 -182 -182.99000549316406 -41 86.02000427246094 -12 callsubr
            35 return
          </CharString>
          <CharString index="134">
            vstem
            115 87.97999572753906 -38 callsubr
            return
          </CharString>
          <CharString index="135">
            rmoveto
            -460 232 -318.99000549316406 return
          </CharString>
          <CharString index="136">
            67 callgsubr
            -80 return
          </CharString>
          <CharString index="137">
            -88 vlineto
            187 8 callgsubr
            rlineto
            hintmask 10111000
            232 callgsubr
            3 359 callgsubr
            -29 hvcurveto
            11 -162.97999572753906 18 callgsubr
            378 vlineto
            hintmask 01111000
            -922.0099945068359 vlineto
            -162 78 callgsubr
            return
          </CharString>
          <CharString index="138">
            -210.99000549316406 384 hlineto
            92 callgsubr
            30.990005493164062 -1 88 rlineto
            -500 -88 hlineto
            159 8 callgsubr
            rlineto
            -385 return
          </CharString>
          <CharString index="139">
            186.97999572753906 947.010009765625 69 callgsubr
            return
          </CharString>
          <CharString index="140">
            -16.020004272460938 -92 callgsubr
            return
          </CharString>
          <CharString index="141">
            373 callsubr
            69 callgsubr
            -23 83 hhcurveto
            269.99000549316406 164 9 callgsubr
            237 222 -135 107 callgsubr
            -291 hvcurveto
            -225 337.02000427246094 hlineto
            215 return
          </CharString>
          <CharString index="142">
            100 166 vvcurveto
            -12 callsubr
            -50 59 -74 450 callgsubr
            188 callsubr
            16 callsubr
            19 -18 21 -63 callgsubr
            hvcurveto
            122 callgsubr
            -62 callsubr
            54 -55 callsubr
            rlineto
            -70 callgsubr
            hlineto
            endchar
          </CharString>
          <CharString index="143">
            1321 vlineto
            496 -12 54 -410.00999450683594 rlineto
            425 callgsubr
            -10 514.0099945068359 rlineto
            -1043 -87 hlineto
            218 -25 rlineto
            -1301 vlineto
            -227 -24 rlineto
            -9 callgsubr
            return
          </CharString>
          <CharString index="144">
            38 callgsubr
            -80 -40 -86 callgsubr
            return
          </CharString>
          <CharString index="145">
            -66 16 callsubr
            19 -18 74 callgsubr
            -63 callgsubr
            hvcurveto
            return
          </CharString>
          <CharString index="146">
            rlineto
            -91 callsubr
            return
          </CharString>
          <CharString index="147">
            147 callgsubr
            424 callsubr
            1370.990005493164 rmoveto
            176 398 callgsubr
            -32 374 callsubr
            hvcurveto
            -101 268 callgsubr
            -23 -187 333 callgsubr
            -7 callgsubr
            vhcurveto
            -19 vlineto
            119 callsubr
            -48 rlineto
            2 hlineto
            78 41 157.99000549316406 183 255 vvcurveto
            return
          </CharString>
          <CharString index="148">
            365 callsubr
            -102.02000427246094 416 callgsubr
            802.0200042724609 484 callgsubr
            -43 -371 94 -11 131 callgsubr
            211 callsubr
            endchar
          </CharString>
          <CharString index="149">
            vlineto
            -176 -73 callsubr
            263 vlineto
            hintmask 10111100
            -95 callsubr
            return
          </CharString>
          <CharString index="150">
            58 -78.00999450683594 189 callsubr
            300 callsubr
            164 callgsubr
            hhcurveto
            170 callgsubr
            -224 -231 -141 -250 -152 79 -111 124 -59 hvcurveto
            return
          </CharString>
          <CharString index="151">
            55 callgsubr
            154 hlineto
            278 273 callsubr
            return
          </CharString>
          <CharString index="152">
            190 callsubr
            973.989990234375 97.00999450683594 return
          </CharString>
          <CharString index="153">
            hstemhm
            -20 callgsubr
            846.989990234375 181 return
          </CharString>
          <CharString index="154">
            147 callgsubr
            vstem
            360 callsubr
            1246.990005493164 rmoveto
            -176 93 -161 -81 callgsubr
            vhcurveto
            1 hlineto
            52 38 32 64.99000549316406 hvcurveto
            101 -138.02000427246094 23 187 vvcurveto
            194 98.02000427246094 115 46 122 callsubr
            vhcurveto
            19 vlineto
            -48 48 rlineto
            -2 hlineto
            58 callsubr
            -41 -158 -183 -255 vvcurveto
            return
          </CharString>
          <CharString index="155">
            -31 callsubr
            320 callgsubr
            hvcurveto
            170 callgsubr
            372 callsubr
            184 callsubr
            -0.9900054931640625 125 callgsubr
            return
          </CharString>
          <CharString index="156">
            88 callgsubr
            497 callsubr
            111 rcurveline
            return
          </CharString>
          <CharString index="157">
            68 callsubr
            918.4799957275391 121 405.010009765625 162 callsubr
            return
          </CharString>
          <CharString index="158">
            127 callsubr
            -64 return
          </CharString>
          <CharString index="159">
            443 callgsubr
            hstem
            393 callsubr
            110 172 133 445 vstem
            return
          </CharString>
          <CharString index="160">
            177.99000549316406 return
          </CharString>
          <CharString index="161">
            rmoveto
            1327 -96 callsubr
            endchar
          </CharString>
          <CharString index="162">
            1 rmoveto
            464 194 228 284 return
          </CharString>
          <CharString index="163">
            -4 callgsubr
            -339 -309 rlineto
            return
          </CharString>
          <CharString index="164">
            107.00999450683594 return
          </CharString>
          <CharString index="165">
            -77.99000549316406 return
          </CharString>
          <CharString index="166">
            10 callsubr
            154 callsubr
            return
          </CharString>
          <CharString index="167">
            hstem
            75 32 callsubr
            vstem
            return
          </CharString>
          <CharString index="168">
            -24 callgsubr
            hstemhm
            return
          </CharString>
          <CharString index="169">
            739.9799957275391 -41 callsubr
            -575 816.9900054931641 rmoveto
            317 callgsubr
            vlineto
            -41 91.02000427246094 -18 callgsubr
            -16 77 hhcurveto
            303.97999572753906 157 134.99000549316406 175 hvcurveto
            return
          </CharString>
          <CharString index="170">
            -80.02000427246094 return
          </CharString>
          <CharString index="171">
            200.99000549316406 return
          </CharString>
          <CharString index="172">
            -42 callgsubr
            49 -299.00999450683594 rlineto
            104 388 callgsubr
            -853.0200042724609 -88 hlineto
            161.02000427246094 -30 callgsubr
            rlineto
            return
          </CharString>
          <CharString index="173">
            1374.990005493164 rmoveto
            65 -42 296 310 return
          </CharString>
          <CharString index="174">
            1824.990005493164 rmoveto
            -64 return
          </CharString>
          <CharString index="175">
            0 14 callgsubr
            return
          </CharString>
          <CharString index="176">
            33.02000427246094 69 callgsubr
            rlineto
            122 callgsubr
            30.990005493164062 92 40 157 callsubr
            hhcurveto
            193.99000549316406 64 259 callgsubr
            -116 -117 -98 -87.99000549316406 -181 281 callgsubr
            hvcurveto
            -86 -11 rlineto
            -111 vlineto
            1 3 58 callgsubr
            13 2 hhcurveto
            return
          </CharString>
          <CharString index="177">
            vlineto
            -170 -18 rlineto
            84 callgsubr
            511 87 vlineto
            -179 21 rlineto
            599 151 vlineto
            165 288.99000549316406 168 callgsubr
            return
          </CharString>
          <CharString index="178">
            207.99000549316406 128 callsubr
            return
          </CharString>
          <CharString index="179">
            -480.99000549316406 109 callsubr
            return
          </CharString>
          <CharString index="180">
            -84.00999450683594 return
          </CharString>
          <CharString index="181">
            vstem
            116 -83 callsubr
            536.9900054931641 -99 callgsubr
            -199.99000549316406 19 rlineto
            1306.009994506836 710 -1305 vlineto
            -178 -25 callsubr
            543 -99 callgsubr
            -199 -24 callsubr
            rlineto
            return
          </CharString>
          <CharString index="182">
            -13 callsubr
            -20 -45 246 callsubr
            114 callgsubr
            154 463 callgsubr
            359 callgsubr
            hvcurveto
            266 callgsubr
            return
          </CharString>
          <CharString index="183">
            rmoveto
            22 21 callgsubr
            return
          </CharString>
          <CharString index="184">
            -90 callsubr
            -70 hvcurveto
            return
          </CharString>
          <CharString index="185">
            283.99000549316406 return
          </CharString>
          <CharString index="186">
            154.99000549316406 return
          </CharString>
          <CharString index="187">
            -222 136 -188 300 callgsubr
            200 297 callgsubr
            150 357 callsubr
            -11 callgsubr
            -110 184 -245 return
          </CharString>
          <CharString index="188">
            -19 callgsubr
            rrcurveto
            197 231 callsubr
            -39 32 rlineto
            return
          </CharString>
          <CharString index="189">
            hstem
            78 callsubr
            return
          </CharString>
          <CharString index="190">
            152.99000549316406 return
          </CharString>
          <CharString index="191">
            10.020004272460938 return
          </CharString>
          <CharString index="192">
            -77 callsubr
            endchar
          </CharString>
          <CharString index="193">
            -58 callsubr
            132 100 166 vvcurveto
            -12 callsubr
            return
          </CharString>
          <CharString index="194">
            309 317 callsubr
            50 -299.99000549316406 rlineto
            110 388 callgsubr
            -1081 hlineto
            158 callsubr
            -410.99000549316406 rlineto
            110 hlineto
            50 299.99000549316406 309.97999572753906 8.009994506835938 rlineto
            -926 vlineto
            -284 -19 rlineto
            endchar
          </CharString>
          <CharString index="195">
            -51 callsubr
            454.99000549316406 102.5 164.5 297.97999572753906 -47.97999572753906 -15 callgsubr
            return
          </CharString>
          <CharString index="196">
            -23 218 callgsubr
            -125.99000549316406 111 971.9900054931641 104 return
          </CharString>
          <CharString index="197">
            -15.009994506835938 -92 callgsubr
            return
          </CharString>
          <CharString index="198">
            29.990005493164062 return
          </CharString>
          <CharString index="199">
            39.02000427246094 return
          </CharString>
          <CharString index="200">
            vstem
            282 callsubr
            -83 callsubr
            vlineto
            477 203 callsubr
            rlineto
            88 vlineto
            -162 18 rlineto
            922.0099945068359 555 -923.0200042724609 vlineto
            -158 -18 -92 callgsubr
            472 186 callsubr
            18 rlineto
            return
          </CharString>
          <CharString index="201">
            50 callsubr
            hstem
            224 callgsubr
            return
          </CharString>
          <CharString index="202">
            -112.99000549316406 return
          </CharString>
          <CharString index="203">
            -49.99000549316406 return
          </CharString>
          <CharString index="204">
            251.99000549316406 return
          </CharString>
          <CharString index="205">
            -834.0099945068359 37 -28 callsubr
            641.9900054931641 224 callsubr
            -851.9900054931641 492 callsubr
            return
          </CharString>
          <CharString index="206">
            227 callsubr
            -170.99000549316406 rlineto
            -49 -58 -99 -52 -193 hhcurveto
            337 callsubr
            -216 219 426 479 callsubr
            6 0 6 7 vvcurveto
            989 -1 rlineto
            11 48 203 callsubr
            60 -91 callsubr
            vvcurveto
            return
          </CharString>
          <CharString index="207">
            66 callsubr
            281 -309 -35 callsubr
            42 -275.99000549316406 400 rlineto
            -155 hlineto
            return
          </CharString>
          <CharString index="208">
            98 82 callsubr
            283 callsubr
            496.00999450683594 107 callsubr
            vstem
            return
          </CharString>
          <CharString index="209">
            142 callsubr
            -91 callsubr
            return
          </CharString>
          <CharString index="210">
            352 callgsubr
            110 -95.010009765625 153 return
          </CharString>
          <CharString index="211">
            -79.99000549316406 rlineto
            1066 hlineto
            48 432.99000549316406 return
          </CharString>
          <CharString index="212">
            129 callsubr
            1309.509994506836 104.49000549316406 return
          </CharString>
          <CharString index="213">
            93 185.99000549316406 658.989990234375 187 return
          </CharString>
          <CharString index="214">
            161.99000549316406 return
          </CharString>
          <CharString index="215">
            123.99000549316406 return
          </CharString>
          <CharString index="216">
            130.99000549316406 return
          </CharString>
          <CharString index="217">
            -15.009994506835938 return
          </CharString>
          <CharString index="218">
            rmoveto
            -63 221 callsubr
            177 callgsubr
            227 callsubr
            -68 -69 hvcurveto
            return
          </CharString>
          <CharString index="219">
            0 -78 callgsubr
            577.9799957275391 101 661.0200042724609 -18 callsubr
            return
          </CharString>
          <CharString index="220">
            -12 callsubr
            rcurveline
            return
          </CharString>
          <CharString index="221">
            -58 callsubr
            0 return
          </CharString>
          <CharString index="222">
            -79 callsubr
            endchar
          </CharString>
          <CharString index="223">
            -123 128 callsubr
            -122.99000549316406 149.99000549316406 return
          </CharString>
          <CharString index="224">
            67 callsubr
            39 -53 64 vhcurveto
            return
          </CharString>
          <CharString index="225">
            -105 -23 -52 callgsubr
            return
          </CharString>
          <CharString index="226">
            47.99000549316406 return
          </CharString>
          <CharString index="227">
            -78.99000549316406 return
          </CharString>
          <CharString index="228">
            -60.99000549316406 return
          </CharString>
          <CharString index="229">
            31.990005493164062 return
          </CharString>
          <CharString index="230">
            333 326 158 29 rlineto
            81 -473 -81 vlineto
            155 -28 -508.99000549316406 -524 5 129 rlineto
            1018 286 callsubr
            -2 hlineto
            -293 -35 rlineto
            -75 vlineto
            168.02000427246094 -18 rlineto
            -1444.990005493164 vlineto
            return
          </CharString>
          <CharString index="231">
            249 callgsubr
            64.99000549316406 return
          </CharString>
          <CharString index="232">
            116 68.00999450683594 65.99000549316406 -51 callsubr
            86 vvcurveto
            142 146 callgsubr
            111 -216 return
          </CharString>
          <CharString index="233">
            327 callsubr
            993.989990234375 94 return
          </CharString>
          <CharString index="234">
            1487.990005493164 rmoveto
            return
          </CharString>
          <CharString index="235">
            172.99000549316406 return
          </CharString>
          <CharString index="236">
            113.99000549316406 return
          </CharString>
          <CharString index="237">
            3.9900054931640625 return
          </CharString>
          <CharString index="238">
            26.990005493164062 return
          </CharString>
          <CharString index="239">
            -89 282 callgsubr
            355 callsubr
            -105 -133 vvcurveto
            -179 126 -127 357 vhcurveto
            114 callgsubr
            335.00999450683594 263 192 223 256 callgsubr
            -111 110 -262 hvcurveto
            -240 hlineto
            return
          </CharString>
          <CharString index="240">
            rmoveto
            -135 -320 255 callgsubr
            -254 -156 -310 rrcurveto
            191 hlineto
            346.00999450683594 953 -30 36 rlineto
            -722 hlineto
            -54 -308 109.02000427246094 -17 201 callsubr
            219 492.00999450683594 1 rlineto
            return
          </CharString>
          <CharString index="241">
            62 callgsubr
            -10 callgsubr
            178 callsubr
            373 callsubr
            89 -114.00999450683594 195 callgsubr
            return
          </CharString>
          <CharString index="242">
            -22 callgsubr
            630.5 146 callsubr
            return
          </CharString>
          <CharString index="243">
            -14.009994506835938 return
          </CharString>
          <CharString index="244">
            -24.990005493164062 return
          </CharString>
          <CharString index="245">
            -441 -363 1962 hstem
            77.99000549316406 725.9900054931641 vstem
            651 1599 rmoveto
            -573.0099945068359 -1962 rlineto
            153 hlineto
            572.9900054931641 1962 rlineto
            380 callgsubr
            hlineto
            endchar
          </CharString>
          <CharString index="246">
            381 callgsubr
            39 -90 callsubr
            -10 callsubr
            57.02000427246094 -35.99000549316406 38 callgsubr
            -81 380 callsubr
            return
          </CharString>
          <CharString index="247">
            292 -35 callsubr
            -159.99000549316406 -147 -231 -127 -101 -225 -147 -93 23 29 -58 hvcurveto
            return
          </CharString>
          <CharString index="248">
            267 650 74 callgsubr
            -116 -148 return
          </CharString>
          <CharString index="249">
            486.00999450683594 252 callgsubr
            return
          </CharString>
          <CharString index="250">
            -73.99000549316406 return
          </CharString>
          <CharString index="251">
            158.99000549316406 return
          </CharString>
          <CharString index="252">
            -240.99000549316406 return
          </CharString>
          <CharString index="253">
            108.00999450683594 return
          </CharString>
          <CharString index="254">
            85.02000427246094 return
          </CharString>
          <CharString index="255">
            -123.99000549316406 return
          </CharString>
          <CharString index="256">
            -88 vlineto
            160 8 callgsubr
            rlineto
            return
          </CharString>
          <CharString index="257">
            39 vhcurveto
            -130 -30 -12 -35 rlineto
            25.009994506835938 -35 131 callsubr
            95 callsubr
            -113.00999450683594 vvcurveto
            -77 109 callgsubr
            -97 428 callgsubr
            -83 vhcurveto
            3 -34 callsubr
            rlineto
            return
          </CharString>
          <CharString index="258">
            -496 101.50999450683594 371.49000549316406 -78 callgsubr
            967.989990234375 8 callsubr
            return
          </CharString>
          <CharString index="259">
            2 callsubr
            105 189 callgsubr
            296 callsubr
            48 rlineto
            -41 -19 -33 -91.02000427246094 return
          </CharString>
          <CharString index="260">
            130 callgsubr
            28 -164 386.00999450683594 -194.99000549316406 92 return
          </CharString>
          <CharString index="261">
            hstem
            106 callsubr
            vstem
            return
          </CharString>
          <CharString index="262">
            hstem
            69 53 callgsubr
            526 149.47999572753906 vstem
            return
          </CharString>
          <CharString index="263">
            228 257.989990234375 228 return
          </CharString>
          <CharString index="264">
            144.02000427246094 return
          </CharString>
          <CharString index="265">
            -10.020004272460938 return
          </CharString>
          <CharString index="266">
            469 callgsubr
            316 callgsubr
            155 309.99000549316406 162.00999450683594 309.010009765625 79 callsubr
            vstem
            431 callgsubr
            -83 callsubr
            return
          </CharString>
          <CharString index="267">
            vvcurveto
            -145 108 callsubr
            -47 9 callsubr
            -91 callsubr
            91.00999450683594 131 callsubr
            43 57 vhcurveto
            86 vlineto
            -24 -48 -59 -17 -52.99000549316406 hhcurveto
            220 callgsubr
            return
          </CharString>
          <CharString index="268">
            50.99000549316406 397.00999450683594 111 hstemhm
            653.9799957275391 154 -61 259 callsubr
            return
          </CharString>
          <CharString index="269">
            147.99000549316406 return
          </CharString>
          <CharString index="270">
            22.020004272460938 return
          </CharString>
          <CharString index="271">
            99.97999572753906 return
          </CharString>
          <CharString index="272">
            58 58 callsubr
            255 callgsubr
            300 callsubr
            314 callgsubr
            hhcurveto
            -1 hlineto
            -224 -231 -141 -250 -152 79.00999450683594 -111 108 callsubr
            -59 hvcurveto
            return
          </CharString>
          <CharString index="273">
            0 97.5 609.4900054931641 90 return
          </CharString>
          <CharString index="274">
            hstemhm
            64 callsubr
            165 return
          </CharString>
          <CharString index="275">
            258 callsubr
            rlineto
            return
          </CharString>
          <CharString index="276">
            hlineto
            84 callsubr
            return
          </CharString>
          <CharString index="277">
            -169 -95 -169.99000549316406 -2 hvcurveto
            325 -200 rmoveto
            -1 hlineto
            -138 121 callsubr
            335 callgsubr
            105 433 callsubr
            75 70 13 callsubr
            hvcurveto
            1 hlineto
            136 return
          </CharString>
          <CharString index="278">
            -99 callgsubr
            -152 -36 callsubr
            return
          </CharString>
          <CharString index="279">
            -131.99000549316406 -19 rlineto
            return
          </CharString>
          <CharString index="280">
            12.990005493164062 return
          </CharString>
          <CharString index="281">
            48.99000549316406 return
          </CharString>
          <CharString index="282">
            96.99000549316406 87.97999572753906 rmoveto
            234 callsubr
            return
          </CharString>
          <CharString index="283">
            -86 callgsubr
            192 callsubr
            hmoveto
            -64 39 -53 64 vhcurveto
            1 306 callsubr
            return
          </CharString>
          <CharString index="284">
            64 callsubr
            187 118 hlineto
            -187 7 callgsubr
            rlineto
            286 vlineto
            -128 -10 return
          </CharString>
          <CharString index="285">
            94 callgsubr
            129 callgsubr
            128 return
          </CharString>
          <CharString index="286">
            241 callgsubr
            -104 callsubr
            return
          </CharString>
          <CharString index="287">
            110.97999572753906 return
          </CharString>
          <CharString index="288">
            -200.99000549316406 return
          </CharString>
          <CharString index="289">
            68 callsubr
            918.4799957275391 121 237.010009765625 -24 callgsubr
            -9 callgsubr
            162 callsubr
            hstemhm
            224 callgsubr
            return
          </CharString>
          <CharString index="290">
            32 rlineto
            -5 hlineto
            return
          </CharString>
          <CharString index="291">
            -39 -86 callgsubr
            340 callsubr
            40 -52 63 -88 callgsubr
            -37 91 callgsubr
            return
          </CharString>
          <CharString index="292">
            80 60 283 callgsubr
            -3 callsubr
            -78.00999450683594 475 callsubr
            return
          </CharString>
          <CharString index="293">
            -99 callgsubr
            -154 return
          </CharString>
          <CharString index="294">
            hstemhm
            104 159 callgsubr
            return
          </CharString>
          <CharString index="295">
            -66.00999450683594 return
          </CharString>
          <CharString index="296">
            -107.99000549316406 return
          </CharString>
          <CharString index="297">
            119.99000549316406 return
          </CharString>
          <CharString index="298">
            -95.99000549316406 return
          </CharString>
          <CharString index="299">
            485.99000549316406 return
          </CharString>
          <CharString index="300">
            119 callsubr
            rlineto
            -41.99000549316406 -76 callsubr
            -35.99000549316406 399 callsubr
            -118 -24 174 428 callsubr
            hhcurveto
            return
          </CharString>
          <CharString index="301">
            332 callsubr
            434 callsubr
            400 rlineto
            return
          </CharString>
          <CharString index="302">
            98 46 callsubr
            return
          </CharString>
          <CharString index="303">
            287 17 123 -52 callgsubr
            163 hhcurveto
            183 163 callgsubr
            -137.99000549316406 -165 -30 -32 callsubr
            -7 callgsubr
            -2 -29 hvcurveto
            return
          </CharString>
          <CharString index="304">
            100 -56 callsubr
            117 vvcurveto
            173 -147.99000549316406 131 callgsubr
            338 callgsubr
            vhcurveto
            -214 -78.00999450683594 -55 432 callgsubr
            hhcurveto
            return
          </CharString>
          <CharString index="305">
            130 callgsubr
            -179 95 callsubr
            73.00999450683594 320 callgsubr
            return
          </CharString>
          <CharString index="306">
            1828.990005493164 rmoveto
            -65 39 -51 64 vhcurveto
            1 392 callgsubr
            40 60 73 58 return
          </CharString>
          <CharString index="307">
            327 callgsubr
            361.97999572753906 101 378.010009765625 -42 callsubr
            return
          </CharString>
          <CharString index="308">
            66.99000549316406 return
          </CharString>
          <CharString index="309">
            42.99000549316406 return
          </CharString>
          <CharString index="310">
            0.9799957275390625 return
          </CharString>
          <CharString index="311">
            173 23 rlineto
            88 -495 -88 vlineto
            157 -43 callsubr
            -563 476 callgsubr
            164 23 rlineto
            88 -483 -88 vlineto
            158 -43 callsubr
            -572 return
          </CharString>
          <CharString index="312">
            795 7 callsubr
            -78 callgsubr
            -81 -78 callgsubr
            719.989990234375 -18 callgsubr
            497.02000427246094 99 -84.010009765625 84 return
          </CharString>
          <CharString index="313">
            vlineto
            466 callgsubr
            -1171.009994506836 -88 vlineto
            151 8 callgsubr
            rlineto
            -911.0099945068359 vlineto
            -154 -19 rlineto
            endchar
          </CharString>
          <CharString index="314">
            vstem
            945.9900054931641 680 rmoveto
            -657 439.99000549316406 -50 -87 512 -418 -518 -408 56 -91 657 427.99000549316406 rlineto
            136 vlineto
            return
          </CharString>
          <CharString index="315">
            -1556.009994506836 rmoveto
            188 callsubr
            437 callsubr
            60 70 66 51.97999572753906 81 60 -34 53 -82 hvcurveto
            return
          </CharString>
          <CharString index="316">
            108 callgsubr
            -82.99000549316406 24 339 callsubr
            158 callgsubr
            return
          </CharString>
          <CharString index="317">
            157.99000549316406 10 95 -92 -94 vvcurveto
            -144 -115 188 callsubr
            -221 return
          </CharString>
          <CharString index="318">
            141 callsubr
            -816 -1205.990005493164 rlineto
            return
          </CharString>
          <CharString index="319">
            rmoveto
            22 -58 callsubr
            257 callgsubr
            100 166 vvcurveto
            -12 callsubr
            return
          </CharString>
          <CharString index="320">
            -46 -69 -93 -105 vvcurveto
            -82.97999572753906 35 -54 return
          </CharString>
          <CharString index="321">
            hlineto
            -112 -93 -59 -27 callgsubr
            -29 hvcurveto
            return
          </CharString>
          <CharString index="322">
            297 callsubr
            187 -46 -127 vvcurveto
            -107 return
          </CharString>
          <CharString index="323">
            4 callsubr
            -64 return
          </CharString>
          <CharString index="324">
            rlineto
            -7 callsubr
            return
          </CharString>
          <CharString index="325">
            179.99000549316406 return
          </CharString>
          <CharString index="326">
            537.9900054931641 return
          </CharString>
          <CharString index="327">
            63.02000427246094 return
          </CharString>
          <CharString index="328">
            38.99000549316406 return
          </CharString>
          <CharString index="329">
            94 callgsubr
            235 128 69 465 callsubr
            170 callgsubr
            -339 -309 rlineto
            return
          </CharString>
          <CharString index="330">
            -67 callsubr
            143 callgsubr
            402 104 vstem
            return
          </CharString>
          <CharString index="331">
            838.9900054931641 -35 76 rlineto
            return
          </CharString>
          <CharString index="332">
            vlineto
            -163 -16.020004272460938 rlineto
            285 callgsubr
            return
          </CharString>
          <CharString index="333">
            -136 vlineto
            657 -427.99000549316406 56 91 -518 408 512 418 return
          </CharString>
          <CharString index="334">
            -38.99000549316406 return
          </CharString>
          <CharString index="335">
            -153.99000549316406 return
          </CharString>
          <CharString index="336">
            vstem
            263.97999572753906 1683.990005493164 rmoveto
            38 -723 rlineto
            -52 callgsubr
            hlineto
            92 callsubr
            723 rlineto
            -184.02000427246094 hlineto
            return
          </CharString>
          <CharString index="337">
            rmoveto
            -70 51 -45 60 69 63 -3 callsubr
            80 60 283 callgsubr
            55 439 callsubr
            endchar
          </CharString>
          <CharString index="338">
            17 116 153 339.97999572753906 vvcurveto
            1116 vlineto
            return
          </CharString>
          <CharString index="339">
            228 220 228 return
          </CharString>
          <CharString index="340">
            41 -80 callsubr
            -39 67 callgsubr
            63 callsubr
            -39 -86 callgsubr
            return
          </CharString>
          <CharString index="341">
            285 callgsubr
            -432 vlineto
            -191 -17 rlineto
            return
          </CharString>
          <CharString index="342">
            -943 rlineto
            -221 -7 callgsubr
            -176 219 callgsubr
            -39 vhcurveto
            return
          </CharString>
          <CharString index="343">
            hstem
            29 callgsubr
            return
          </CharString>
          <CharString index="344">
            350 callsubr
            -42 callsubr
            return
          </CharString>
          <CharString index="345">
            578.9900054931641 return
          </CharString>
          <CharString index="346">
            -5.0200042724609375 return
          </CharString>
          <CharString index="347">
            -379.99000549316406 return
          </CharString>
          <CharString index="348">
            136.99000549316406 return
          </CharString>
          <CharString index="349">
            116 callgsubr
            hstemhm
            -12 1315 -428.02000427246094 428.00999450683594 hintmask 11100000
            return
          </CharString>
          <CharString index="350">
            381 callsubr
            -96.00999450683594 227 callgsubr
            -24 174 -165 hhcurveto
            return
          </CharString>
          <CharString index="351">
            410 callsubr
            189 callgsubr
            -51 callsubr
            557.9999847412109 176 return
          </CharString>
          <CharString index="352">
            129 47 129 callgsubr
            rlinecurve
            25 126 -3 167 227 vvcurveto
            846.9900054931641 vlineto
            195 24 rlineto
            88 -570 -88 vlineto
            return
          </CharString>
          <CharString index="353">
            72 callgsubr
            220 callsubr
            -11 46 hhcurveto
            return
          </CharString>
          <CharString index="354">
            29 callsubr
            -39 -86 callgsubr
            return
          </CharString>
          <CharString index="355">
            -45 72 callgsubr
            63 -11 return
          </CharString>
          <CharString index="356">
            hvcurveto
            -1 hlineto
            -81 79 callgsubr
            return
          </CharString>
          <CharString index="357">
            1701.990005493164 rmoveto
            -176 return
          </CharString>
          <CharString index="358">
            -233 -24 callsubr
            rlineto
            return
          </CharString>
          <CharString index="359">
            409 callgsubr
            -176 -19 rlineto
            return
          </CharString>
          <CharString index="360">
            -659 68 callsubr
            return
          </CharString>
          <CharString index="361">
            93.99000549316406 return
          </CharString>
          <CharString index="362">
            -96.00999450683594 return
          </CharString>
          <CharString index="363">
            -45.02000427246094 return
          </CharString>
          <CharString index="364">
            -11.020004272460938 return
          </CharString>
          <CharString index="365">
            -88 vlineto
            171 -23 return
          </CharString>
          <CharString index="366">
            155.99000549316406 return
          </CharString>
          <CharString index="367">
            -16 -47 4 callgsubr
            -74 callgsubr
            -45 callgsubr
            return
          </CharString>
          <CharString index="368">
            vlineto
            180 339 callsubr
            rlineto
            88 -1402 -88 vlineto
            179 -53 callgsubr
            -169.99000549316406 -19 rlineto
            endchar
          </CharString>
          <CharString index="369">
            309 callsubr
            470 callgsubr
            return
          </CharString>
          <CharString index="370">
            1879.979995727539 rmoveto
            9 callgsubr
            32 -175 163 hhcurveto
            return
          </CharString>
          <CharString index="371">
            603.9900054931641 53 callgsubr
            return
          </CharString>
          <CharString index="372">
            -0.9799957275390625 return
          </CharString>
          <CharString index="373">
            90.99000549316406 return
          </CharString>
          <CharString index="374">
            173.99000549316406 return
          </CharString>
          <CharString index="375">
            276.99000549316406 return
          </CharString>
          <CharString index="376">
            324 callsubr
            457.02000427246094 -42 callsubr
            457.00999450683594 473.97999572753906 return
          </CharString>
          <CharString index="377">
            -458 -185.99000549316406 1965.990005493164 hstem
            358.99000549316406 147 vstem
            358.99000549316406 1780 rmoveto
            return
          </CharString>
          <CharString index="378">
            -509.99000549316406 115 394.99000549316406 return
          </CharString>
          <CharString index="379">
            hstemhm
            -42 2107 -485.00999450683594 485 return
          </CharString>
          <CharString index="380">
            400 -65 455 callgsubr
            -284 310 return
          </CharString>
          <CharString index="381">
            1966.979995727539 rmoveto
            return
          </CharString>
          <CharString index="382">
            108 callsubr
            hstem
            return
          </CharString>
          <CharString index="383">
            -175 -19 rlineto
            return
          </CharString>
          <CharString index="384">
            135.97999572753906 221 vhcurveto
            373 vlineto
            151 23 rlineto
            98 return
          </CharString>
          <CharString index="385">
            113.00999450683594 return
          </CharString>
          <CharString index="386">
            97.02000427246094 return
          </CharString>
          <CharString index="387">
            -148.99000549316406 return
          </CharString>
          <CharString index="388">
            282.99000549316406 return
          </CharString>
          <CharString index="389">
            105.97999572753906 return
          </CharString>
          <CharString index="390">
            171.99000549316406 return
          </CharString>
          <CharString index="391">
            8 0 282 callsubr
            281.010009765625 118 542.989990234375 88 hstem
            -34 callgsubr
            165 return
          </CharString>
          <CharString index="392">
            395 -17 121.97000122070312 899.0200042724609 174 callgsubr
            -58 callgsubr
            -91 callsubr
            return
          </CharString>
          <CharString index="393">
            vlineto
            -39 326 callgsubr
            return
          </CharString>
          <CharString index="394">
            -99 244 246 132 363 callsubr
            return
          </CharString>
          <CharString index="395">
            398 -22 callgsubr
            1325.510009765625 99 351 callsubr
            164 820 165 vstem
            return
          </CharString>
          <CharString index="396">
            -10.990005493164062 302 callgsubr
            -146.989990234375 return
          </CharString>
          <CharString index="397">
            -91 -104 hvcurveto
            -120 -1 -63 -21 callsubr
            -129 hhcurveto
            return
          </CharString>
          <CharString index="398">
            -401 0 92 904.9799957275391 171 return
          </CharString>
          <CharString index="399">
            99 604.010009765625 -18 callsubr
            return
          </CharString>
          <CharString index="400">
            204 143 callsubr
            return
          </CharString>
          <CharString index="401">
            -6 -34 callsubr
            return
          </CharString>
          <CharString index="402">
            1687.979995727539 rmoveto
            return
          </CharString>
          <CharString index="403">
            hvcurveto
            -9 callgsubr
            return
          </CharString>
          <CharString index="404">
            -72.00999450683594 return
          </CharString>
          <CharString index="405">
            221.97999572753906 return
          </CharString>
          <CharString index="406">
            -114.00999450683594 return
          </CharString>
          <CharString index="407">
            27.009994506835938 return
          </CharString>
          <CharString index="408">
            230.99000549316406 return
          </CharString>
          <CharString index="409">
            138.02000427246094 return
          </CharString>
          <CharString index="410">
            -4.0200042724609375 return
          </CharString>
          <CharString index="411">
            1374.990005493164 rmoveto
            64.99000549316406 -42 296.02000427246094 310 405 callsubr
            -309 return
          </CharString>
          <CharString index="412">
            -23 180 callsubr
            591.010009765625 -18 callsubr
            657.0099945068359 -18 callsubr
            return
          </CharString>
          <CharString index="413">
            384 callgsubr
            -37 77 callsubr
            return
          </CharString>
          <CharString index="414">
            439.00999450683594 -90.99000549316406 254 callsubr
            -590.0099945068359 -589.9900054931641 return
          </CharString>
          <CharString index="415">
            hstemhm
            123 callgsubr
            166 116 callsubr
            return
          </CharString>
          <CharString index="416">
            212 callsubr
            -50 59 -74 vhcurveto
            return
          </CharString>
          <CharString index="417">
            274 callsubr
            248 274 callgsubr
            return
          </CharString>
          <CharString index="418">
            hlineto
            175 23 rlineto
            88 -507 -88 vlineto
            170 -23 rlineto
            return
          </CharString>
          <CharString index="419">
            -67.99000549316406 return
          </CharString>
          <CharString index="420">
            173.02000427246094 return
          </CharString>
          <CharString index="421">
            242.99000549316406 return
          </CharString>
          <CharString index="422">
            52.97999572753906 return
          </CharString>
          <CharString index="423">
            -92.02000427246094 return
          </CharString>
          <CharString index="424">
            -8.009994506835938 return
          </CharString>
          <CharString index="425">
            103.00999450683594 return
          </CharString>
          <CharString index="426">
            142.99000549316406 return
          </CharString>
          <CharString index="427">
            -187.99000549316406 return
          </CharString>
          <CharString index="428">
            460 callgsubr
            423 callsubr
            441 callsubr
            return
          </CharString>
          <CharString index="429">
            39 -64 callgsubr
            return
          </CharString>
          <CharString index="430">
            hlineto
            93 39 235 514 callgsubr
            -114 113 callsubr
            -1 hlineto
            -339 -309 rlineto
            return
          </CharString>
          <CharString index="431">
            45.99000549316406 472.97999572753906 return
          </CharString>
          <CharString index="432">
            424 callgsubr
            235 -128 return
          </CharString>
          <CharString index="433">
            8 callsubr
            hstem
            return
          </CharString>
          <CharString index="434">
            -23 -81 callgsubr
            return
          </CharString>
          <CharString index="435">
            395 callgsubr
            98.02000427246094 74 return
          </CharString>
          <CharString index="436">
            88 hstem
            557.9900054931641 -64 callsubr
            145 callgsubr
            450.99000549316406 vstem
            return
          </CharString>
          <CharString index="437">
            698.9799957275391 135 hstem
            58 callgsubr
            return
          </CharString>
          <CharString index="438">
            325 callsubr
            94 -39 rrcurveto
            return
          </CharString>
          <CharString index="439">
            -309 73.00999450683594 42 return
          </CharString>
          <CharString index="440">
            226.97999572753906 166 return
          </CharString>
          <CharString index="441">
            176 23 rlineto
            88 return
          </CharString>
          <CharString index="442">
            -21.020004272460938 return
          </CharString>
          <CharString index="443">
            150.99000549316406 return
          </CharString>
          <CharString index="444">
            -241.99000549316406 return
          </CharString>
          <CharString index="445">
            -51 64 vhcurveto
            1 hlineto
            return
          </CharString>
          <CharString index="446">
            25.990005493164062 return
          </CharString>
          <CharString index="447">
            448 hmoveto
            -64 return
          </CharString>
          <CharString index="448">
            906.0200042724609 294 callgsubr
            -32 -176 -124.99000549316406 -39 vhcurveto
            return
          </CharString>
          <CharString index="449">
            -55 callgsubr
            -84.00001525878906 84 471 callsubr
            157 callgsubr
            return
          </CharString>
          <CharString index="450">
            -303 1 256 callsubr
            rrcurveto
            111 hlineto
            -70 callgsubr
            121 callgsubr
            return
          </CharString>
          <CharString index="451">
            168 callgsubr
            endchar
          </CharString>
          <CharString index="452">
            -22 239 callgsubr
            hstemhm
            337 callgsubr
            251 -209.510009765625 149 return
          </CharString>
          <CharString index="453">
            hlineto
            363 callgsubr
            return
          </CharString>
          <CharString index="454">
            170 28.020004272460938 rlineto
            74 -542 -74 vlineto
            206 435 callsubr
            rlineto
            return
          </CharString>
          <CharString index="455">
            -52 callgsubr
            638.989990234375 292 callsubr
            return
          </CharString>
          <CharString index="456">
            -283.00999450683594 -414 132 callgsubr
            return
          </CharString>
          <CharString index="457">
            hstem
            95 callgsubr
            return
          </CharString>
          <CharString index="458">
            hstem
            260 callgsubr
            return
          </CharString>
          <CharString index="459">
            1977 rmoveto
            -210 return
          </CharString>
          <CharString index="460">
            -91 callsubr
            hstemhm
            return
          </CharString>
          <CharString index="461">
            282.00999450683594 return
          </CharString>
          <CharString index="462">
            -99.99000549316406 return
          </CharString>
          <CharString index="463">
            -69.97999572753906 return
          </CharString>
          <CharString index="464">
            272.02000427246094 return
          </CharString>
          <CharString index="465">
            -144.02000427246094 return
          </CharString>
          <CharString index="466">
            -323.00999450683594 return
          </CharString>
          <CharString index="467">
            236.99000549316406 return
          </CharString>
          <CharString index="468">
            -47.99000549316406 return
          </CharString>
          <CharString index="469">
            -110.02000427246094 return
          </CharString>
          <CharString index="470">
            98 211 11 -1 -6 callgsubr
            -1 84 callsubr
            vhcurveto
            -123 hlineto
            return
          </CharString>
          <CharString index="471">
            590.0099945068359 -589 266 callsubr
            93 -442 440 104 -11 rlineto
            return
          </CharString>
          <CharString index="472">
            rmoveto
            48 104 callsubr
            -98 21 return
          </CharString>
          <CharString index="473">
            hstem
            98.97000122070312 192 882.0200042724609 283 callsubr
            vstem
            return
          </CharString>
          <CharString index="474">
            352 callsubr
            132 477 callsubr
            return
          </CharString>
          <CharString index="475">
            400 rlineto
            -155 474 callsubr
            return
          </CharString>
          <CharString index="476">
            -199.99000549316406 -19 rlineto
            endchar
          </CharString>
          <CharString index="477">
            392 callsubr
            vlineto
            return
          </CharString>
          <CharString index="478" raw="1">
            f71d1d1f 880b  
          </CharString>
          <CharString index="479">
            -81.02000427246094 return
          </CharString>
          <CharString index="480">
            69.02000427246094 return
          </CharString>
          <CharString index="481">
            -64.99000549316406 return
          </CharString>
          <CharString index="482">
            469.00999450683594 return
          </CharString>
          <CharString index="483">
            246.99000549316406 return
          </CharString>
          <CharString index="484">
            -149.02000427246094 return
          </CharString>
          <CharString index="485">
            190.02000427246094 return
          </CharString>
          <CharString index="486">
            167.99000549316406 return
          </CharString>
          <CharString index="487">
            -39 -68 -69 hvcurveto
            return
          </CharString>
          <CharString index="488">
            119 callsubr
            rlineto
            -41.99000549316406 -16 -36 108 callgsubr
            return
          </CharString>
          <CharString index="489">
            hstemhm
            511 callsubr
            888.9999847412109 119 return
          </CharString>
          <CharString index="490">
            1765.990005493164 rmoveto
            -64 39 -53 64 vhcurveto
            1 hlineto
            83 41 62 72 58 return
          </CharString>
          <CharString index="491">
            2 callgsubr
            444 353.989990234375 159 353 445 return
          </CharString>
          <CharString index="492">
            -76 callsubr
            77 hhcurveto
            303.97999572753906 157 135 175 return
          </CharString>
          <CharString index="493">
            960.9799957275391 723 hstem
            281 callsubr
            145.49000549316406 return
          </CharString>
          <CharString index="494">
            hstem
            293 callgsubr
            return
          </CharString>
          <CharString index="495">
            126 30 -173 163 hhcurveto
            return
          </CharString>
          <CharString index="496">
            171 159 vvcurveto
            97 -23 105 return
          </CharString>
          <CharString index="497">
            122 callgsubr
            rlineto
            return
          </CharString>
          <CharString index="498">
            123 52 123 hstemhm
            return
          </CharString>
          <CharString index="499">
            rlineto
            -912.0200042724609 return
          </CharString>
          <CharString index="500">
            -19 490.97999572753906 return
          </CharString>
          <CharString index="501">
            166 callgsubr
            14 callgsubr
            return
          </CharString>
          <CharString index="502">
            0 0 -78 callgsubr
            288.989990234375 118 544 88 return
          </CharString>
          <CharString index="503">
            144 callgsubr
            rlineto
            1305.009994506836 vlineto
            187 23 rlineto
            88 return
          </CharString>
          <CharString index="504">
            68 callsubr
            1276.490005493164 97 callsubr
            hstemhm
            return
          </CharString>
          <CharString index="505">
            310 callsubr
            155 hlineto
            return
          </CharString>
          <CharString index="506">
            108 callgsubr
            255 callsubr
            return
          </CharString>
          <CharString index="507">
            vlineto
            -177 -18 -92 callgsubr
            return
          </CharString>
          <CharString index="508">
            -111.99000549316406 return
          </CharString>
          <CharString index="509">
            -91.00999450683594 return
          </CharString>
          <CharString index="510">
            170.00999450683594 return
          </CharString>
          <CharString index="511">
            175.97999572753906 return
          </CharString>
          <CharString index="512">
            280.97999572753906 return
          </CharString>
          <CharString index="513">
            264.00999450683594 return
          </CharString>
          <CharString index="514">
            311.99000549316406 return
          </CharString>
          <CharString index="515">
            -50 -117 hhcurveto
            return
          </CharString>
          <CharString index="516">
            rmoveto
            376 callsubr
            207 162 247.99000549316406 hvcurveto
            return
          </CharString>
          <CharString index="517">
            297.97999572753906 -47.97999572753906 -15 callgsubr
            hstemhm
            return
          </CharString>
          <CharString index="518">
            -74 callgsubr
            477 callgsubr
            return
          </CharString>
          <CharString index="519">
            -22 callgsubr
            1325.010009765625 -55 callgsubr
            return
          </CharString>
          <CharString index="520">
            8 callsubr
            480 callgsubr
            return
          </CharString>
          <CharString index="521">
            186 7 callsubr
            174 callsubr
            hhcurveto
            319 return
          </CharString>
          <CharString index="522">
            -451 -281 113 1704 180 callsubr
            hstem
            return
          </CharString>
          <CharString index="523">
            -34 callsubr
            vhcurveto
            -13 vlineto
            54 -55 callsubr
            rlineto
            return
          </CharString>
          <CharString index="524">
            174.00999450683594 -5.0099945068359375 156.00999450683594 return
          </CharString>
          <CharString index="525">
            7 -23 98 1363.979995727539 99 return
          </CharString>
          <CharString index="526">
            -63 39 -53 64 vhcurveto
            1 hlineto
            return
          </CharString>
          <CharString index="527">
            vhcurveto
            -42 callgsubr
            hlineto
            return
          </CharString>
          <CharString index="528">
            228 258.010009765625 return
          </CharString>
          <CharString index="529">
            hlineto
            10 45.02000427246094 return
          </CharString>
          <CharString index="530">
            hstem
            319 callgsubr
            return
          </CharString>
          <CharString index="531">
            vstem
            535.9799957275391 return
          </CharString>
          <CharString index="532">
            19 505 callgsubr
            return
          </CharString>
          <CharString index="533">
            vlineto
            53 callsubr
            return
          </CharString>
          <CharString index="534">
            rmoveto
            -58 callgsubr
            return
          </CharString>
          <CharString index="535">
            -164.99000549316406 return
          </CharString>
          <CharString index="536">
            253.99000549316406 return
          </CharString>
          <CharString index="537">
            58.97999572753906 return
          </CharString>
          <CharString index="538">
            -181.99000549316406 return
          </CharString>
          <CharString index="539">
            -57.02000427246094 return
          </CharString>
          <CharString index="540">
            111.99000549316406 return
          </CharString>
          <CharString index="541">
            -276.00999450683594 return
          </CharString>
          <CharString index="542">
            -28.020004272460938 return
          </CharString>
          <CharString index="543">
            -104.02000427246094 return
          </CharString>
          <CharString index="544">
            -69 -58 -75 -70 -3 callsubr
            202 callgsubr
            return
          </CharString>
          <CharString index="545">
            -168 130 callgsubr
            -179 95 callsubr
            return
          </CharString>
          <CharString index="546">
            -78.00999450683594 475 callsubr
            -59 -76 vhcurveto
            return
          </CharString>
          <CharString index="547">
            -162 -17 rlineto
            endchar
          </CharString>
          <CharString index="548">
            -42 callsubr
            387.99998474121094 148 vstem
            return
          </CharString>
          <CharString index="549">
            -104 callgsubr
            459 -99 callgsubr
            return
          </CharString>
          <CharString index="550">
            -320 -221 -167 -326 -281.99000549316406 return
          </CharString>
          <CharString index="551">
            vlineto
            -221 -81 -26 callgsubr
            -169 -151 return
          </CharString>
          <CharString index="552">
            -218 -24 rlineto
            -88 627 88 vlineto
            -243 25 rlineto
            return
          </CharString>
          <CharString index="553">
            hlineto
            16 303 callgsubr
            rlineto
            17 -70 -182 47 return
          </CharString>
          <CharString index="554">
            -204 -185 -154 -273 hvcurveto
            588 4 rmoveto
            return
          </CharString>
          <CharString index="555">
            19 rlineto
            910.0099945068359 vlineto
            return
          </CharString>
          <CharString index="556">
            103 74 137 callgsubr
            hvcurveto
            return
          </CharString>
          <CharString index="557">
            -321.99000549316406 -758 -36 return
          </CharString>
          <CharString index="558">
            320.97999572753906 return
          </CharString>
          <CharString index="559">
            21.020004272460938 return
          </CharString>
          <CharString index="560">
            240.99000549316406 return
          </CharString>
          <CharString index="561">
            293.99000549316406 return
          </CharString>
          <CharString index="562">
            -333.99000549316406 return
          </CharString>
          <CharString index="563">
            -3.0200042724609375 return
          </CharString>
          <CharString index="564">
            168 23 rlineto
            88 return
          </CharString>
          <CharString index="565">
            287.97999572753906 return
          </CharString>
          <CharString index="566">
            82.97999572753906 return
          </CharString>
          <CharString index="567">
            409.99000549316406 return
          </CharString>
          <CharString index="568">
            445.00999450683594 return
          </CharString>
          <CharString index="569">
            -110.97999572753906 return
          </CharString>
          <CharString index="570">
            30 -10 callgsubr
            2 callsubr
            vhcurveto
            return
          </CharString>
          <CharString index="571">
            hvcurveto
            -1 hlineto
            -80 -39 -21 callsubr
            -69 hvcurveto
            return
          </CharString>
          <CharString index="572">
            89 299 callsubr
            113 callsubr
            return
          </CharString>
          <CharString index="573">
            88 236 callsubr
            return
          </CharString>
          <CharString index="574">
            -23 1454.979995727539 return
          </CharString>
          <CharString index="575">
            203 callsubr
            hlineto
            return
          </CharString>
          <CharString index="576">
            1717.990005493164 rmoveto
            return
          </CharString>
          <CharString index="577">
            hstem
            318 callgsubr
            return
          </CharString>
          <CharString index="578">
            hstemhm
            78 callsubr
            return
          </CharString>
          <CharString index="579">
            -55 callgsubr
            hstemhm
            return
          </CharString>
          <CharString index="580">
            hvcurveto
            -32 callsubr
            return
          </CharString>
          <CharString index="581">
            hlineto
            -284 -401 rlineto
            return
          </CharString>
          <CharString index="582">
            -66.99000549316406 -65 return
          </CharString>
          <CharString index="583">
            1902 rmoveto
            return
          </CharString>
          <CharString index="584">
            -99 244 246 132 98 211 11 return
          </CharString>
          <CharString index="585">
            hstemhm
            461 callgsubr
            2 callsubr
            return
          </CharString>
          <CharString index="586">
            139 callgsubr
            -47 callgsubr
            return
          </CharString>
          <CharString index="587">
            392 callgsubr
            204 callgsubr
            return
          </CharString>
          <CharString index="588">
            hstem
            71 callsubr
            return
          </CharString>
          <CharString index="589">
            297 callsubr
            vvcurveto
            -125.99000549316406 return
          </CharString>
          <CharString index="590">
            -27 callsubr
            rmoveto
            -9 callgsubr
            return
          </CharString>
          <CharString index="591">
            vlineto
            -163 207 callgsubr
          </CharString>
          <CharString index="592">
            468 callgsubr
            2 return
          </CharString>
          <CharString index="593">
            81 381.989990234375 83 return
          </CharString>
          <CharString index="594">
            -57 13 callsubr
            83 return
          </CharString>
          <CharString index="595">
            hstemhm
            93 185.99000549316406 return
          </CharString>
          <CharString index="596">
            vhcurveto
            -2 9 callsubr
            return
          </CharString>
          <CharString index="597">
            156.02000427246094 return
          </CharString>
          <CharString index="598">
            -397.99000549316406 return
          </CharString>
          <CharString index="599">
            -313 111 hlineto
            return
          </CharString>
          <CharString index="600">
            -185.02000427246094 return
          </CharString>
          <CharString index="601">
            539.9900054931641 return
          </CharString>
          <CharString index="602">
            -98.02000427246094 return
          </CharString>
          <CharString index="603">
            -97.99000549316406 return
          </CharString>
          <CharString index="604">
            -127.02000427246094 return
          </CharString>
          <CharString index="605">
            -141.99000549316406 return
          </CharString>
          <CharString index="606">
            -444.99000549316406 return
          </CharString>
          <CharString index="607">
            15.020004272460938 return
          </CharString>
          <CharString index="608">
            -370.00999450683594 return
          </CharString>
          <CharString index="609">
            52.99000549316406 return
          </CharString>
          <CharString index="610">
            -344.99000549316406 return
          </CharString>
          <CharString index="611">
            180.97999572753906 return
          </CharString>
          <CharString index="612">
            1521.990005493164 return
          </CharString>
          <CharString index="613">
            -205.99000549316406 return
          </CharString>
          <CharString index="614">
            911.0200042724609 return
          </CharString>
          <CharString index="615">
            67.00999450683594 return
          </CharString>
          <CharString index="616">
            322.99000549316406 return
          </CharString>
          <CharString index="617">
            403 callsubr
            -24 callgsubr
            return
          </CharString>
          <CharString index="618">
            277.99000549316406 107 callgsubr
            return
          </CharString>
          <CharString index="619">
            121 hstem
            333 callsubr
            return
          </CharString>
          <CharString index="620">
            -154 -133 -41 -66.99000549316406 return
          </CharString>
        <CharString name=".notdef">
          447 0 97 callsubr
          906.989990234375 257 hstem
          53 callgsubr
          262 893.989990234375 260.00999450683594 vstem
          53 callgsubr
          1415.990005493164 rmoveto
          -1415.990005493164 1416.009994506836 1415.990005493164 -1416.009994506836 vlineto
          382 -1164 rmoveto
          314 callgsubr
          135 343 317.99000549316406 -344 338 114 116 333 503 callgsubr
          328 350.99000549316406 107 callgsubr
          -116 -348 455 callsubr
          348 -343 95 callsubr
          -113 -337 353.00999450683594 -324.02000427246094 -353.00999450683594 rlineto
          endchar
        </CharString>
        <CharString name="A">
          -19 callsubr
          hstemhm
          -23 242 callgsubr
          hintmask 00000000
          hintmask 11110000
          -23 87.97999572753906 -106 callgsubr
        </CharString>
        <CharString name="AE">
          -2 callsubr
          640 87 -88 callsubr
        </CharString>
        <CharString name="AEacute">
          -2 callsubr
          823.9900054931641 62 callgsubr
          -10 callgsubr
          222 callsubr
          506 callgsubr
          -1611.979995727539 -88 callsubr
        </CharString>
        <CharString name="Aacute">
          -19 callsubr
          hstem
          467 callsubr
          vstem
          566.9900054931641 62 callgsubr
          56 -52.97999572753906 rlineto
          1 32 callgsubr
          -589.9799957275391 -1611 -106 callgsubr
        </CharString>
        <CharString name="Abreve">
          -19 callsubr
          118 135 hstem
          373.97999572753906 95 465.010009765625 94 vstem
          373.99000549316406 354 callgsubr
          118 -25 callgsubr
          -170 -56 103 74 -8 hvcurveto
          -45 callgsubr
          82 callgsubr
          -396.97999572753906 -1866.020004272461 -106 callgsubr
        </CharString>
        <CharString name="Acircumflex">
          -19 callsubr
          353.010009765625 275 callsubr
          467 callsubr
          vstem
          361.97999572753906 414 callgsubr
          68.02000427246094 -43 272 -33 callsubr
          -384.97999572753906 -1628.020004272461 -106 callgsubr
        </CharString>
        <CharString name="Adieresis">
          -73 callgsubr
        </CharString>
        <CharString name="Agrave">
          -19 callsubr
          hstem
          467 callsubr
          vstem
          460 callsubr
          331 callsubr
          0.9900054931640625 13 callgsubr
          -432.97999572753906 -1814.020004272461 -106 callgsubr
        </CharString>
        <CharString name="Amacron">
          -19 callsubr
          222 8 callsubr
          hstemhm
          437.97999572753906 494 callsubr
          hintmask 00000000
          hintmask 11111000
          437.99000549316406 51 callgsubr
          -460.97999572753906 -1797.020004272461 -106 callgsubr
        </CharString>
        <CharString name="Aogonek">
          65 271 callsubr
          0 callsubr
          hstem
          -23 242 callgsubr
          436 161 vstem
          -23 -83 callsubr
          242 callgsubr
          -99 callgsubr
          -181 -24 callsubr
          57 callsubr
          325 rlineto
          639 hlineto
          109 -326 -180 -73 callsubr
          203 vlineto
          -143 -61 -118 -145 401 callsubr
          vvcurveto
          -145 360 callgsubr
          -47 124 -91 callsubr
          91.00999450683594 131 callsubr
          43 57 vhcurveto
          86 vlineto
          -24 -47 -59 -17 -53 hhcurveto
          -86 -74 34 97 86.02000427246094 123 callgsubr
          120 133 58 hvcurveto
          169 -104 callsubr
          hlineto
          -134 19 -511 1430 rlineto
          -168 hlineto
          -510 -1430 172 callsubr
          269 callgsubr
          451.00999450683594 rmoveto
          224.99000549316406 675 56.02000427246094 64 callsubr
          57 -194.99000549316406 -11 callgsubr
          -681 rlineto
          -567.9900054931641 hlineto
          endchar
        </CharString>
        <CharString name="Aring">
          82 -22 callgsubr
          335.5 106 1392.010009765625 459 callsubr
          hstemhm
          -23 242 callgsubr
          -55.989990234375 127 390 9 callgsubr
          hintmask 11101100
          1297.979995727539 -52 callgsubr
          rmoveto
          -506 1417.009994506836 129 24.990005493164062 2 callsubr
          434 callgsubr
          -70 callgsubr
          497 callgsubr
          rlinecurve
          243 callgsubr
          -2 -122 75 495 callsubr
          159 137 callsubr
          rrcurveto
          hintmask 11110100
          -505 -1416.009994506836 -131.99000549316406 -19 rlineto
          -93 callsubr
          hintmask 11101100
          -134 19 rlineto
          -789 1662 rmoveto
          107 74 55 9 callsubr
          vhcurveto
          411 callgsubr
          -1 hlineto
          -138 -59 81 92 hvcurveto
          -110 -1229.990005493164 rmoveto
          224.99000549316406 675 56.02000427246094 64 callsubr
          57 -194.99000549316406 -11 callgsubr
          -681 rlineto
          -567.9900054931641 hlineto
          endchar
        </CharString>
        <CharString name="Atilde">
          -19 callsubr
          168 391 callsubr
          467 callsubr
          hintmask 11001100
          541 1879.979995727539 rmoveto
          126 122 callsubr
          -175 163 hhcurveto
          hintmask 11011100
          133 434 callgsubr
          152 callsubr
          96 callgsubr
          -117 137 callsubr
          459 callgsubr
          hintmask 11001100
          -144 -101 227 callgsubr
          -89 -23 hvcurveto
          -27 callsubr
          -47 rlineto
          40 19 332 callgsubr
          -563.9900054931641 -1792 rmoveto
          -93 callsubr
          -134 19 rlineto
          hintmask 11101100
          -511 1430 rlineto
          -168 hlineto
          -510 -1430 rlineto
          hintmask 11001100
          172 callsubr
          269 callgsubr
          451.00999450683594 rmoveto
          hintmask 11101100
          224.99000549316406 675 56.02000427246094 64 callsubr
          57 -194.99000549316406 -11 callgsubr
          -681 rlineto
          hintmask 11001100
          -567.9900054931641 hlineto
          endchar
        </CharString>
        <CharString name="B">
          -71 callsubr
        </CharString>
        <CharString name="C">
          7 -23 155 callgsubr
          vstem
          -10 callsubr
          768 rmoveto
          -475.02000427246094 251 -315.97999572753906 447 245 76 -10 callsubr
          5 -56 callsubr
          vhcurveto
          3 callgsubr
          273 -100 callgsubr
          hvcurveto
          endchar
        </CharString>
        <CharString name="CR">
          -1323 endchar
        </CharString>
        <CharString name="Cacute">
          7 -23 155 callgsubr
          vstem
          647.9900054931641 62 callgsubr
          56.02000427246094 115 callgsubr
          0.9799957275390625 32 callgsubr
          -574 -930.9799957275391 rmoveto
          -475.02000427246094 251 -315.97999572753906 447 245 76 -10 callsubr
          5 -56 callsubr
          vhcurveto
          3 callgsubr
          273 -100 callgsubr
          hvcurveto
          endchar
        </CharString>
        <CharString name="Ccaron">
          418 callsubr
          487 callgsubr
          251 callgsubr
          vstem
          459.97999572753906 15 callsubr
          -385.99000549316406 -1198.979995727539 rmoveto
          -475.02000427246094 251 -315.97999572753906 447 245 76 -10 callsubr
          5 -56 callsubr
          vhcurveto
          3 callgsubr
          273 -100 callgsubr
          hvcurveto
          endchar
        </CharString>
        <CharString name="Ccedilla">
          -72 callgsubr
        </CharString>
        <CharString name="Ccircumflex">
          418 callsubr
          352.010009765625 123.99000549316406 251 callgsubr
          vstem
          442.97999572753906 414 callgsubr
          68.02000427246094 -43 272 -33 callsubr
          435 callgsubr
          -948 rmoveto
          -475.02000427246094 251 -315.97999572753906 447 245 76 -10 callsubr
          5 -56 callsubr
          vhcurveto
          3 callgsubr
          273 -100 callgsubr
          hvcurveto
          endchar
        </CharString>
        <CharString name="Cdotaccent">
          418 callsubr
          175 252 251 callgsubr
          403.989990234375 228 vstem
          670.9900054931641 199 callsubr
          -38 61 -70 hvcurveto
          -1 hlineto
          63 callsubr
          -39 -21 callsubr
          -69 hvcurveto
          -597 -1060.990005493164 rmoveto
          -475.02000427246094 251 -315.97999572753906 447 245 76 -10 callsubr
          5 -56 callsubr
          vhcurveto
          3 callgsubr
          273 -100 callgsubr
          hvcurveto
          endchar
        </CharString>
        <CharString name="D">
          225 -12 callgsubr
          1342.5 195 callsubr
          hintmask 00000000
          hintmask 01111000
          -51 callsubr
          -83 callsubr
          263 vlineto
          hintmask 10111000
          -95 callsubr
          hintmask 01111000
          252 callsubr
          hintmask 10111000
          345 12 54 callsubr
        </CharString>
        <CharString name="Dcaron">
          225 -12 callgsubr
          1342.5 98 487 callgsubr
          46 callsubr
          hintmask 10111100
          471.97999572753906 15 callsubr
          hintmask 01111100
          -369.99000549316406 -1879 419 callgsubr
          hintmask 10111100
          -95 callsubr
          hintmask 01111100
          252 callsubr
          hintmask 10111100
          345 12 54 callsubr
        </CharString>
        <CharString name="Dcroat">
          225 -12 callgsubr
          631.5 106 605 195 callsubr
          hintmask 10111100
          190 callsubr
          834.9900054931641 rmoveto
          -106 158 vlineto
          hintmask 01111100
          -622 42 callsubr
          -576 -158 vlineto
          327 hmoveto
          591.9900054931641 -96 callsubr
          629 385 106 -385 vlineto
          endchar
        </CharString>
        <CharString name="E">
          7 223 callsubr
          102.99000549316406 87.97999572753906 -61 callgsubr
          36 callgsubr
          -101 callsubr
          287 callgsubr
        </CharString>
        <CharString name="Eacute">
          8 223 callsubr
          560.9900054931641 62 callgsubr
          56 -52.97999572753906 rlineto
          1 32 callgsubr
          -458 -1611 -61 callgsubr
          36 callgsubr
          -101 callsubr
          287 callgsubr
        </CharString>
        <CharString name="Ebreve">
          8 -67 callsubr
          132.99998474121094 135 hstemhm
          -20 callgsubr
          -79.010009765625 95 386.010009765625 104 -25.010009765625 94 hintmask 00000000
          hintmask 11110101
          367.97999572753906 354 callgsubr
          118.00999450683594 -25 callgsubr
          -170 -56 103 74 -8 hvcurveto
          -45 callgsubr
          82 callgsubr
          -264.99000549316406 -1866.020004272461 -61 callgsubr
          rlineto
          hintmask 11111010
          36 callgsubr
          -101 callsubr
          hintmask 11110101
          287 callgsubr
        </CharString>
        <CharString name="Ecaron">
          8 -67 callsubr
          403 callsubr
          115 143 callgsubr
          402 104 vstem
          372.97999572753906 15 callsubr
          -269.99000549316406 -1879 -61 callgsubr
          36 callgsubr
          -101 callsubr
          287 callgsubr
        </CharString>
        <CharString name="Ecircumflex">
          7 -67 callsubr
          368.00999450683594 123.99000549316406 143 callgsubr
          402 104 vstem
          354.97999572753906 414 callgsubr
          68.02000427246094 -43 272 -33 callsubr
          -251.99000549316406 -1628.020004272461 -61 callgsubr
          36 callgsubr
          -101 callsubr
          287 callgsubr
        </CharString>
        <CharString name="Edieresis">
          -74 callsubr
        </CharString>
        <CharString name="Edotaccent">
          8 -67 callsubr
          190.99998474121094 252 hstemhm
          -20 callgsubr
          136.989990234375 228 37.010009765625 104 hintmask 00000000
          hintmask 11111110
          583.9900054931641 199 callsubr
          -38 61 356 callsubr
          hvcurveto
          -1 hlineto
          63 callsubr
          -39 -21 callsubr
          -69 hvcurveto
          -481 -1741 -61 callgsubr
          36 callgsubr
          hintmask 11101010
          -101 callsubr
          hintmask 11111110
          287 callgsubr
        </CharString>
        <CharString name="Egrave">
          8 223 callsubr
          371 424 callgsubr
          129 callgsubr
          -128 94 -39 rrcurveto
          1 13 callgsubr
          -268 -1814.020004272461 -61 callgsubr
          36 callgsubr
          -101 callsubr
          287 callgsubr
        </CharString>
        <CharString name="Emacron">
          8 -67 callsubr
          236.99998474121094 8 callsubr
          hstemhm
          -20 callgsubr
          -15.010009765625 494 callsubr
          -122.97999572753906 104 hintmask 00000000
          hintmask 11110100
          431.97999572753906 51 callgsubr
          -328.99000549316406 -1797.020004272461 -61 callgsubr
          rlineto
          hintmask 11111010
          36 callgsubr
          -101 callsubr
          hintmask 11110100
          287 callgsubr
        </CharString>
        <CharString name="Eng">
          283 0 -78 callgsubr
          1326.509994506836 390 callgsubr
          279.97999572753906 119 889 118 vstem
          116.97999572753906 87 rmoveto
          -87 375 callsubr
          87 vlineto
          -187 19.990005493164062 rlineto
          1234 vlineto
          158 -287 673 -1026.990005493164 -12 227 callsubr
          -19 -39 190 callgsubr
          -36 rlinecurve
          -68 -97 -106 -63.02000427246094 -130 -29 44 240 callgsubr
          rcurveline
          134.99000549316406 15 117 44 115.02000427246094 128 rrcurveto
          163 callgsubr
          82 54 -56 callsubr
          316.99000549316406 vvcurveto
          1066 vlineto
          167 23 rlineto
          87 -458 -87 vlineto
          173 -23 rlineto
          -1218 vlineto
          -155 277.00999450683594 -680 1051 rlineto
          -336.02000427246094 -87 hlineto
          163 -24 rlineto
          409 callgsubr
          -163 111 callgsubr
          rlineto
          endchar
        </CharString>
        <CharString name="Eogonek">
          8 271 callsubr
          -69 callsubr
          hstemhm
          -20 callgsubr
          285 107 callsubr
          374 callgsubr
          104 hintmask 01111010
          86 callgsubr
          918 vlineto
          hintmask 11111100
          315 callgsubr
          -61 -134 -144 95 callsubr
          160 callsubr
          -74 34 97 95 155 143 136 26 hvcurveto
          27 hlineto
          63 345.99000549316406 -97 31.009994506835938 -104 -256 36 callgsubr
          hintmask 01111010
          -101 callsubr
          287 callgsubr
        </CharString>
        <CharString name="Eth">
          225 -12 callgsubr
          650.510009765625 93 598.989990234375 195 callsubr
          hintmask 10111100
          121 840.9900054931641 rmoveto
          -93 157 vlineto
          hintmask 01111100
          -641 42 callsubr
          -570 -157 vlineto
          326 hmoveto
          585.9900054931641 -96 callsubr
          648.0099945068359 385 93 -385 vlineto
          endchar
        </CharString>
        <CharString name="Euro">
          228 -28 92 192 callsubr
          105 266.989990234375 105 437.010009765625 -51 callsubr
          hstem
          509 callsubr
          176 vstem
          92 654.9900054931641 rmoveto
          -105 334 callgsubr
          vlineto
          -350 46 194 -227.97999572753906 355 hhcurveto
          262 98 92 130 callsubr
          86 hvcurveto
          122 callgsubr
          239 -93 18 -53 -163 rlineto
          -56.02000427246094 -75 63 callsubr
          -41.97999572753906 -127 hhcurveto
          -297 -124.00999450683594 199.99000549316406 286 -35.97999572753906 hvcurveto
          551 105 -560 hlineto
          -32 callsubr
          34 -1 35 36 vvcurveto
          57 -19 callgsubr
          54 5 51 vhcurveto
          586.0200042724609 105 -570 hlineto
          278 57 95 callgsubr
          159 238 hhcurveto
          134 111 -31 -39 42 hvcurveto
          32 -223 rlineto
          254 callsubr
          hlineto
          16.020004272460938 323.02000427246094 rlineto
          18 63 callsubr
          -124.99000549316406 2 callgsubr
          -178 hhcurveto
          -334 -239 -202 -337 -86 hvcurveto
          -244 -105 222 hlineto
          7 callgsubr
          284 callgsubr
          -5 188 callsubr
          -69 vvcurveto
          -24 0 -23 1 -23 vhcurveto
          -232 hlineto
          endchar
        </CharString>
        <CharString name="F">
          -59 -22 callgsubr
          620.5 106 598.510009765625 99.49000549316406 143 callgsubr
          443 123 callgsubr
          vstem
          180 callsubr
          -83 callsubr
          656.0200042724609 -99 callgsubr
          -320 19 rlineto
          615 vlineto
          408.99000549316406 137 callgsubr
          258 callgsubr
          -173 rlineto
          123 callgsubr
          453 317 callgsubr
          hlineto
          -34.02000427246094 -167.02000427246094 -408.99000549316406 -6 rlineto
          606 vlineto
          577 -42 callgsubr
          -10 callgsubr
          -233 rlineto
          112 hlineto
          335 callsubr
          337 rlineto
          -1072 -88 hlineto
          495 callgsubr
          420 callgsubr
          vlineto
          -167.02000427246094 -18 rlineto
          endchar
        </CharString>
        <CharString name="G">
          188 57 callgsubr
          366 callsubr
          98.97999572753906 735.9900054931641 -31 callgsubr
        </CharString>
        <CharString name="Gbreve">
          191 57 callgsubr
          117 135 hstemhm
          -51 callsubr
          192 199 123 callgsubr
          465.00999450683594 280 callgsubr
          29.009994506835938 172 hintmask 11111101
          492.99000549316406 354 callgsubr
          117.99000549316406 -130 212 vhcurveto
          hintmask 11111111
          203 121 131 168.97999572753906 -20 callsubr
          0 12 -32 callsubr
          -20 callsubr
          hvcurveto
          108 callgsubr
          hlineto
          -6 0 7 callgsubr
          -32 callsubr
          -12 vhcurveto
          143 callsubr
          -6 -53 -104 -169 hhcurveto
          -170 -56 103 74 -8 hvcurveto
          -3 12 0 84 callsubr
          6 vvcurveto
          -93 hlineto
          hintmask 11111101
          -32 callsubr
          136 callsubr
          0 -13 109 callgsubr
          vvcurveto
          -391 -1218.009994506836 -35 callgsubr
        </CharString>
        <CharString name="Gcircumflex">
          188 57 callgsubr
          352.010009765625 123.99000549316406 366 callsubr
          478.99000549316406 414 callgsubr
          67.99000549316406 -43 357 callsubr
          217 265.99000549316406 -217 75 45 -264.99000549316406 296 rlineto
          -154 hlineto
          -262 -297.97999572753906 rlineto
          -380.00999450683594 -980.0099945068359 -31 callgsubr
        </CharString>
        <CharString name="Gcommaaccent">
          196 57 callgsubr
          hstem
          282 callsubr
          192 491.010009765625 141 250 283 callsubr
          vstem
          282 callsubr
          735.9900054931641 rmoveto
          -432 260.02000427246094 -326.97999572753906 443.99000549316406 274 160 164 callsubr
          5 -56 callsubr
          vhcurveto
          554 vlineto
          126 390 callsubr
          -56 callsubr
          -581.9799957275391 189 callsubr
          vlineto
          284 281 callgsubr
          rlineto
          -466 vlineto
          -57 -73.02000427246094 -139 -37 -145 hhcurveto
          -357.99000549316406 -167.02000427246094 352.00999450683594 361 431 240 220 316.00999450683594 193 -7 callsubr
          -46 -23 31 hvcurveto
          45 -237 rlineto
          57 callsubr
          446 callsubr
          -211 hhcurveto
          -426.99000549316406 -340.00999450683594 -287.99000549316406 -514.0099945068359 hvcurveto
          670 -1292.979995727539 212 callsubr
          -50.02000427246094 59 143 callsubr
          vhcurveto
          -9 hlineto
          -25 38 callsubr
          452 callsubr
          -62 callsubr
          2 callgsubr
          286 callgsubr
        </CharString>
        <CharString name="Gdotaccent">
          191 57 callgsubr
          175 252 hstem
          -51 callsubr
          192 415 128 callgsubr
          239.00999450683594 172 vstem
          709 15 callgsubr
          -607 -1093 -35 callgsubr
        </CharString>
        <CharString name="H">
          365 135 callsubr
          587.0000152587891 99 61 callgsubr
          780.989990234375 170 vstem
          110 87.97999572753906 -57 callgsubr
        </CharString>
        <CharString name="Hbar">
          365 0 98 533.9900054931641 106 303.989990234375 94 286.510009765625 100.5 481 callgsubr
          786.0099945068359 157 callgsubr
          vstem
          3 callgsubr
          427 callgsubr
          -94 234 -935 vlineto
          -174 -18 rlineto
          93 callgsubr
          519.9900054931641 165 callgsubr
          vlineto
          -179 18 rlineto
          525 786 -522 vlineto
          -171 -24 rlineto
          -85.02000427246094 506 147 callsubr
          vlineto
          -168 24 rlineto
          931.9900054931641 234 94 -234 275.00999450683594 vlineto
          168 23 rlineto
          429 callgsubr
          -506 -89.00999450683594 vlineto
          171 -23 rlineto
          -275.00999450683594 -786 275.00999450683594 426 callsubr
          23 rlineto
          429 callgsubr
          -512.9900054931641 -89.00999450683594 vlineto
          168 -23 rlineto
          -275.00999450683594 -234 vlineto
          1187 491 callsubr
          rmoveto
          -786 303.97999572753906 786 -303.97999572753906 hlineto
          endchar
        </CharString>
        <CharString name="Hcircumflex">
          365 135 callsubr
          587.0000152587891 99 368 123.99000549316406 61 callgsubr
          780.989990234375 170 vstem
          502.99000549316406 414 callgsubr
          68 -43 357 callsubr
          -33 callsubr
          -392.99000549316406 -1628.020004272461 -57 callgsubr
        </CharString>
        <CharString name="I">
          1 callgsubr
          387 callsubr
          vstem
          134 callgsubr
          endchar
        </CharString>
        <CharString name="I.uc">
          -11 callsubr
        </CharString>
        <CharString name="IJ">
          258 0 -78 callgsubr
          1324.989990234375 100 387 callsubr
          634.010009765625 170 vstem
          122 87.97999572753906 -21 callgsubr
        </CharString>
        <CharString name="IJ_acutecomb">
          258 0 -78 callgsubr
          1324.989990234375 100 387 callsubr
          634.010009765625 170 vstem
          273.97999572753906 17 callsubr
          -339 -309 rlineto
          794.0099945068359 hmoveto
          -10 callgsubr
          -52.97999572753906 rlineto
          1 32 callgsubr
          -946 -1611 -21 callgsubr
        </CharString>
        <CharString name="Iacute">
          1 callgsubr
          387 callsubr
          vstem
          273.97999572753906 17 callsubr
          -339 -309 rlineto
          -151.99000549316406 -1611 -95 callgsubr
          endchar
        </CharString>
        <CharString name="Ibreve">
          1 callgsubr
          132.989990234375 135 hstem
          81 123 callgsubr
          145.989990234375 170 149 94 vstem
          81 182 callgsubr
          -90 89 callgsubr
          -168.99000549316406 hhcurveto
          -170 -56.02000427246094 449 callsubr
          456 callsubr
          12 0 84 callsubr
          6 vvcurveto
          -93 hlineto
          -32 callsubr
          136 callsubr
          0 -13 109 callgsubr
          vvcurveto
          41 -1866.020004272461 -95 callgsubr
          endchar
        </CharString>
        <CharString name="Icircumflex">
          1 callgsubr
          368 123.99000549316406 387 callsubr
          vstem
          69 414 callgsubr
          68 -43 272 217 265.99000549316406 -217 75.02000427246094 45 -265.00999450683594 296 rlineto
          228 callsubr
          hlineto
          -262 -297.97999572753906 rlineto
          53 -1628.020004272461 -95 callgsubr
          endchar
        </CharString>
        <CharString name="Idieresis">
          1 callgsubr
          186 153 callgsubr
          hintmask 00000000
          hintmask 11111100
          -62 callgsubr
          hintmask 11001000
          569 87 hlineto
          -93 callgsubr
          hintmask 11111100
          369 callsubr
        </CharString>
        <CharString name="Idotaccent">
          -11 callsubr
        </CharString>
        <CharString name="Igrave">
          1 callgsubr
          387 callsubr
          vstem
          116.97999572753906 476 callsubr
          373 callsubr
          -89 129 callgsubr
          208 callgsubr
          266 callgsubr
          -1814.020004272461 -95 callgsubr
          endchar
        </CharString>
        <CharString name="Imacron">
          1 callgsubr
          236.989990234375 126.00999450683594 387 callsubr
          vstem
          145 51 callgsubr
          -23 -1797.020004272461 -95 callgsubr
          endchar
        </CharString>
        <CharString name="Iogonek">
          -509 271 callsubr
          -51 callgsubr
          1325.510009765625 99 hstemhm
          115 107 callsubr
          44.989990234375 170 hintmask 11101000
          122 -83 callsubr
          262 vlineto
          hintmask 11111000
          -134 -61 -135 -145 401 callsubr
          vvcurveto
          -145 108 callsubr
          -47 9 callsubr
          411 callsubr
          58 vhcurveto
          86 vlineto
          -24 -48 -59 -17 -52.99000549316406 hhcurveto
          220 callgsubr
          -74 34 97 86.02000427246094 -56 callsubr
          120 128 58 hvcurveto
          hintmask 11101000
          178.02000427246094 87 hlineto
          -90 callgsubr
          endchar
        </CharString>
        <CharString name="Itilde">
          1 callgsubr
          182.989990234375 391 callsubr
          293 callgsubr
          hintmask 11011000
          247.99000549316406 1879.979995727539 rmoveto
          126 32 -175 163 hhcurveto
          hintmask 11111000
          133 80 2 callsubr
          105 33 hvcurveto
          -85 48 rlineto
          -41 -19 283 callgsubr
          -91.02000427246094 -97 -117 -25 459 callgsubr
          hintmask 11011000
          -143.99000549316406 130 callgsubr
          227 callgsubr
          -89 -23 hvcurveto
          147 callsubr
          -47 rlineto
          40 144 callgsubr
          332 callgsubr
          -126 -1792 -95 callgsubr
          endchar
        </CharString>
        <CharString name="J">
          -556 1421.979995727539 100 hstem
          407 callsubr
          170 vstem
          -45 callgsubr
          -281 -50 callsubr
        </CharString>
        <CharString name="Jcircumflex">
          -556 1421.979995727539 100 368.010009765625 275 callsubr
          407 callsubr
          170 vstem
          174 callsubr
          414 callgsubr
          68 -43 357 callsubr
          -33 callsubr
          -51.97999572753906 -1997 -50 callsubr
        </CharString>
        <CharString name="K">
          140 83 callgsubr
          1326.5 99.49000549316406 61 callgsubr
          466.989990234375 474 vstem
          -17 callsubr
          endchar
        </CharString>
        <CharString name="Kcommaaccent">
          140 83 callgsubr
          1326.5 99.49000549316406 471 callsubr
          169 332.989990234375 141 -7 474 hintmask 11101000
          -17 callsubr
          hintmask 11110000
          -442 -556.9900054931641 76 callsubr
          191 callgsubr
          vhcurveto
          -8.990005493164062 -16 callsubr
        </CharString>
        <CharString name="L">
          -30 77 callgsubr
          vstem
          -18 callgsubr
          87.97999572753906 85 callsubr
        </CharString>
        <CharString name="Lacute">
          -30 77 callgsubr
          vstem
          367.97999572753906 62 callgsubr
          56.02000427246094 115 callgsubr
          114 callgsubr
          93 39 235 514 callgsubr
          -114 113 callsubr
          -1 hlineto
          -339.00999450683594 -309 rlineto
          -258.99000549316406 -1611 85 callsubr
        </CharString>
        <CharString name="Lcaron">
          -30 77 callgsubr
          520.989990234375 149.99000549316406 vstem
          936 290 callgsubr
          2 callgsubr
          389 callsubr
          64 callgsubr
          150 callsubr
          -827 -986.0099945068359 85 callsubr
        </CharString>
        <CharString name="Lcommaaccent">
          -30 77 callgsubr
          233.989990234375 141 vstem
          -18 callgsubr
          87.97999572753906 -77 callsubr
          565 -644.9700012207031 76 callsubr
          143 callsubr
          vhcurveto
          -9.020004272460938 -16 callsubr
        </CharString>
        <CharString name="Ldot">
          -30 0 114.5 594.4900054931641 249.99000549316406 464.00999450683594 99 61 callgsubr
          398.989990234375 426 callgsubr
          -18 callgsubr
          87.97999572753906 -77 callsubr
          743 736.0099945068359 230 callsubr
        </CharString>
        <CharString name="Lslash">
          -27 77 callgsubr
          vstem
          52 635.9900054931641 rmoveto
          -104 vlineto
          232 131 callgsubr
          rlineto
          -526.0099945068359 vlineto
          -175 -73 callsubr
          1065 vlineto
          75 376 callgsubr
          -98 17 181 callgsubr
          -320.97999572753906 -582.9900054931641 233 callgsubr
          595 vlineto
          427.99000549316406 69 callgsubr
          rlineto
          111 vlineto
          -427.99000549316406 -192 rlineto
          602.0099945068359 vlineto
          204 22 rlineto
          88 -544.0099945068359 168 callsubr
          -672.0200042724609 vlineto
          -232 -102.99000549316406 rlineto
          endchar
        </CharString>
        <CharString name="M">
          -46 callsubr
        </CharString>
        <CharString name="N">
          309 152 callgsubr
          888.9999847412109 119 27 callsubr
          endchar
        </CharString>
        <CharString name="NULL">
          -1323 endchar
        </CharString>
        <CharString name="Nacute">
          311 152 callgsubr
          888.9999847412109 119 vstem
          719.9900054931641 62 callgsubr
          56 94 callgsubr
          235 514 callgsubr
          357 callgsubr
          195 callgsubr
          -605 -1611 -70 callsubr
        </CharString>
        <CharString name="Ncaron">
          386 callgsubr
          403 callsubr
          115 hstem
          511 callsubr
          888.9999847412109 119 424 callsubr
          15 callsubr
          -420.99000549316406 -1879 -70 callsubr
        </CharString>
        <CharString name="Ncommaaccent">
          311 152 callgsubr
          446.00999450683594 452 callgsubr
          302.00999450683594 119 27 callsubr
          715 -644.9700012207031 rmoveto
          22 86 callsubr
          96 callsubr
          59 -74 vhcurveto
          -9.020004272460938 -26 callsubr
          -40.02000427246094 368 callgsubr
        </CharString>
        <CharString name="Ntilde">
          386 callgsubr
          182.99998474121094 123 52 123 382 callsubr
          hintmask 11011100
          657 1879.979995727539 rmoveto
          126 122 callsubr
          -175 163 hhcurveto
          hintmask 11111100
          133.02000427246094 80 2 callsubr
          105 33 296 callsubr
          48 rlineto
          -41 -19.009994506835938 283 callgsubr
          -91.02000427246094 96 callgsubr
          -117 137 callsubr
          459 callgsubr
          hintmask 11011100
          -144 130 callgsubr
          227 callgsubr
          -89 -23 hvcurveto
          85 -47 rlineto
          40 19 332 callgsubr
          -542 -1792 -70 callsubr
        </CharString>
        <CharString name="O">
          11 callsubr
          75 748.9900054931641 -102 callsubr
        </CharString>
        <CharString name="OE">
          780 7 callsubr
          123 callgsubr
          -79 110 624.4900054931641 101.5 583 -15 callgsubr
          -69.99000549316406 94 hstemhm
          75 339 callgsubr
          776 -64 callsubr
          404.99998474121094 104.00999450683594 hintmask 01110111
          1035 hmoveto
          937.9900054931641 hlineto
          145 callgsubr
          349.97999572753906 -97 27.020004272460938 164 callgsubr
          -257 -634 169 callgsubr
          637.0099945068359 vlineto
          380 -5 24.990005493164062 -177 rlineto
          104.02000427246094 452 436 callsubr
          196 callgsubr
          -168 -380 -6 rlineto
          591.0099945068359 vlineto
          550.0099945068359 -10.009994506835938 -3 callsubr
          -198.99000549316406 rlineto
          97 hlineto
          -29 307 rlineto
          -838.9900054931641 hlineto
          hintmask 10101111
          -31.009994506835938 vlineto
          -81 38.02000427246094 316 callsubr
          144 callgsubr
          -103 -32 callsubr
          rrcurveto
          -378 -8 -305.99000549316406 -304 -483 vvcurveto
          -458 453 callsubr
          -317.99000549316406 414 500 callgsubr
          vhcurveto
          110 -19 callgsubr
          103 131 callsubr
          92.02000427246094 52 rrcurveto
          hintmask 01110111
          361 callgsubr
          vlineto
          hintmask 10101111
          197 vmoveto
          -77 158 callgsubr
          -98 -41 -123 hhcurveto
          -308 1 -174 303 368.99000549316406 vvcurveto
          450.00999450683594 193 250 454 callsubr
          134 148 callgsubr
          -41 -62 65 vhcurveto
          -1152 vlineto
          endchar
        </CharString>
        <CharString name="Oacute">
          11 callsubr
          605 17 callsubr
          -338.99000549316406 -309 rlineto
          -530 -949.9900054931641 -102 callsubr
        </CharString>
        <CharString name="Obreve">
          -23 -78 callgsubr
          1368 -81 callgsubr
          116.99998474121094 135 hstem
          75 186.97999572753906 150.010009765625 123 callgsubr
          464.99998474121094 94 143.010009765625 69 callgsubr
          vstem
          412 182 callgsubr
          108 callgsubr
          hlineto
          -6 0 7 callgsubr
          -2 -12 vhcurveto
          143 callsubr
          -6 -52.99000549316406 -104 -169 hhcurveto
          -170 -56 449 callsubr
          -3 12 0 84 callsubr
          6 vvcurveto
          -93 hlineto
          -32 callsubr
          136 callsubr
          0 -13 109 callgsubr
          vvcurveto
          -337 -1205 -102 callsubr
        </CharString>
        <CharString name="Ocircumflex">
          -23 -78 callgsubr
          1368 -81 callgsubr
          352.00999450683594 123.99000549316406 60 callsubr
          399.99000549316406 414 callgsubr
          68 -43 272 217 266.02000427246094 -217 75 45 -265.02000427246094 296 rlineto
          228 callsubr
          hlineto
          -262 -297.97999572753906 rlineto
          -325 -967 -102 callsubr
        </CharString>
        <CharString name="Odieresis">
          -23 -78 callgsubr
          1368 -81 callgsubr
          510 callsubr
          hstem
          75 186.97999572753906 123 421 callsubr
          228 110 69 callgsubr
          vstem
          384.97999572753906 67 callsubr
          87 callgsubr
          114 callgsubr
          83 101 callgsubr
          79 callgsubr
          -86 callgsubr
          102 callsubr
          40.02000427246094 -30 callsubr
          -796 -1076 -102 callsubr
        </CharString>
        <CharString name="Ograve">
          11 callsubr
          448 424 callgsubr
          129 callgsubr
          397 callgsubr
          -337.99000549316406 309 rlineto
          -1 hlineto
          -115 -105.99000549316406 rlineto
          -373 -1153 -102 callsubr
        </CharString>
        <CharString name="Ohungarumlaut">
          11 callsubr
          379.99000549316406 469 callsubr
          72 288 callgsubr
          -271.00999450683594 -294.00999450683594 rlineto
          485 2 rmoveto
          163 callgsubr
          -64 99 58 142 101 -74 callgsubr
          254 callsubr
          rlinecurve
          -106 99 -291 -287.99000549316406 rlineto
          -790 -971 -102 callsubr
        </CharString>
        <CharString name="Omacron">
          -23 -78 callgsubr
          1368 -81 callgsubr
          220.99998474121094 326 callsubr
          75 186.97999572753906 214.010009765625 494 callsubr
          193.00999450683594 69 callgsubr
          vstem
          476 51 callgsubr
          -401 -1136 -102 callsubr
        </CharString>
        <CharString name="Oslash">
          151 -23 -78 callgsubr
          1368 -81 callgsubr
          hstem
          75.97999572753906 187 947.010009765625 69 callgsubr
          vstem
          325 -177 rmoveto
          78.99000549316406 190 callgsubr
          148 callgsubr
          213.99000549316406 69 -23 76 -12 -91 callsubr
          1 rlinecurve
          378 7 298 307.9700012207031 483 vvcurveto
          333 -119.99000549316406 251 -224 278 callsubr
          vhcurveto
          -74 callgsubr
          205.99000549316406 -79.02000427246094 29 120 callsubr
          -204 rlineto
          23 -21 callsubr
          -74 12 -82 hhcurveto
          240 callsubr
          -302.02000427246094 -306 -483 -332 278 callgsubr
          -258 222.99000549316406 -116 hvcurveto
          -93.97999572753906 -219.99000549316406 rlineto
          -62.02000427246094 927 rmoveto
          464 194 228 284 72 65 -76 callsubr
          8 callgsubr
          56 vhcurveto
          -461 -1229 rlineto
          -137 114 158 callgsubr
          211 258 vvcurveto
          740 599.9900054931641 rmoveto
          134 401 callsubr
          73.00999450683594 -207.02000427246094 -257 vvcurveto
          -464 -194 -236 -281 -26 callgsubr
          -65 16 31.009994506835938 -57 vhcurveto
          462.99000549316406 1228.990005493164 rlineto
          endchar
        </CharString>
        <CharString name="Otilde">
          -23 -78 callgsubr
          1368 -81 callgsubr
          166.99998474121094 391 callsubr
          75 32 callsubr
          hintmask 11011100
          238 callsubr
          263 callsubr
          hintmask 11111100
          133 80 2 callsubr
          105 33 hvcurveto
          220 callgsubr
          48 rlineto
          -41 -19 -33 -91.02000427246094 -97 -117 -25 459 callgsubr
          hintmask 11011100
          -144 -101 227 callgsubr
          -89 -23 hvcurveto
          373 callgsubr
          -47 rlineto
          40 19 40.97999572753906 91 96.02000427246094 hhcurveto
          -504 -1130.990005493164 -102 callsubr
        </CharString>
        <CharString name="P">
          -10 248 callgsubr
          61 callgsubr
          622 218 callsubr
          vstem
          -18 callgsubr
          87.97999572753906 -76 callgsubr
        </CharString>
        <CharString name="Q">
          162 -412.99000549316406 319 callsubr
          247 -78 callgsubr
          1368 -81 callgsubr
          hstem
          81 32 callsubr
          vstem
          81 453 callgsubr
          28 callsubr
          228 callgsubr
          7 vhcurveto
          45.02000427246094 1 45 5 43 10 rrcurveto
          -44 263.99000549316406 189 -362 354 hhcurveto
          11 hlineto
          70 66 42 18 144 callgsubr
          hvcurveto
          111 callgsubr
          -27 callsubr
          rlineto
          -1 -13 -12 -1 -19 hhcurveto
          -32 callsubr
          hlineto
          -267 -219 281.97999572753906 122 callgsubr
          -298 hvcurveto
          248 110 172 264.99000549316406 367 vvcurveto
          459 -226 304 -415 240 callsubr
          119 callgsubr
          279 callgsubr
          55 callsubr
          300.02000427246094 169 -275 -393.00999450683594 -464 -194 -236 -281 -302 -170 284 392 vhcurveto
          endchar
        </CharString>
        <CharString name="R">
          96 112 callsubr
          143 callgsubr
          582 159 callgsubr
          vstem
          102.99000549316406 87.97999572753906 -98 callgsubr
          endchar
        </CharString>
        <CharString name="Racute">
          96 112 callsubr
          143 callgsubr
          582 159 callgsubr
          vstem
          581 134 callsubr
          -478 -1611 -98 callgsubr
          endchar
        </CharString>
        <CharString name="Rcaron">
          97 112 callsubr
          154.00999450683594 115 143 callgsubr
          582 159 callgsubr
          vstem
          433 callgsubr
          398 callsubr
          239 callgsubr
          268 callsubr
          312 callsubr
          42 -256 -204 -251 204 -74 -44 rlineto
          -291 -1879 -98 callgsubr
          endchar
        </CharString>
        <CharString name="Rcommaaccent">
          97 112 callsubr
          143 callgsubr
          309.989990234375 141 131.010009765625 159 callgsubr
          vstem
          102.99000549316406 87.97999572753906 -98 callgsubr
          452 callsubr
          -1332.979995727539 76 callsubr
          -74.00999450683594 vhcurveto
          -9 -16 callsubr
        </CharString>
        <CharString name="S">
          37 callgsubr
          237 callsubr
          623.9999847412109 177 vstem
          133 70.97999572753906 -107 callsubr
          endchar
        </CharString>
        <CharString name="Sacute">
          37 callgsubr
          237 callsubr
          623.9999847412109 177 vstem
          509.99000549316406 62 callgsubr
          56 222 callsubr
          -377 -1628 -107 callsubr
          endchar
        </CharString>
        <CharString name="Scaron">
          37 callgsubr
          154.00999450683594 115 237 callsubr
          623.9999847412109 177 vstem
          321.97999572753906 398 callsubr
          246 268 callsubr
          259 callgsubr
          42 -256 -204 -251 204 -74 -44 rlineto
          203 callgsubr
          -1896 -107 callsubr
          endchar
        </CharString>
        <CharString name="Scircumflex">
          37 callgsubr
          352.00999450683594 123.99000549316406 237 callsubr
          623.9999847412109 177 vstem
          304.97999572753906 414 callgsubr
          68 -43 357 callsubr
          -33 callsubr
          -171.99000549316406 -1645.020004272461 -107 callsubr
          endchar
        </CharString>
        <CharString name="Scommaaccent">
          37 callgsubr
          237 callsubr
          286.99998474121094 141 196 177 vstem
          133 70.97999572753906 -107 callsubr
          455.99000549316406 -627.9700012207031 rmoveto
          22 7.9900054931640625 132.02000427246094 35 callsubr
        </CharString>
        <CharString name="T">
          117 callgsubr
          hstem
          264 callsubr
          vstem
          -32 callgsubr
          endchar
        </CharString>
        <CharString name="Tbar">
          105 -22 callgsubr
          581.510009765625 112 632.5099945068359 390 callgsubr
          623.9799957275391 177 vstem
          367.97999572753906 791 rmoveto
          -112 256 -572 vlineto
          -268 -73 callsubr
          737.0200042724609 -99 callgsubr
          -292 19 rlineto
          572 257.97999572753906 112 -257.97999572753906 638 vlineto
          306 callgsubr
          -34 -521.0099945068359 rlineto
          433 callsubr
          hlineto
          66 417.00999450683594 389 11 rlineto
          -638 -256 vlineto
          endchar
        </CharString>
        <CharString name="Tcaron">
          117 callgsubr
          170 115 hstem
          264 callsubr
          vstem
          386.99000549316406 274 callsubr
          247.99000549316406 274 callgsubr
          155.02000427246094 hlineto
          239 callgsubr
          106 callgsubr
          -73.99000549316406 -44 rlineto
          -51 -1879 -98 callsubr
          737 -99 callgsubr
          -60 callsubr
          -268 -19 rlineto
          endchar
        </CharString>
        <CharString name="Thorn">
          -22 0 96.5 239.49000549316406 92 659 99 238.51998901367188 390 callgsubr
          268 callsubr
          -64 callsubr
          608.0099945068359 456 callgsubr
          vstem
          -15 callgsubr
          87 rmoveto
          -87 562 87 vlineto
          -222 144 callgsubr
          rlineto
          238 vlineto
          -6.9900054931640625 64 77 -1 116 hhcurveto
          331 205 147 callgsubr
          307.02000427246094 268 -175 133 -292 95 callsubr
          -112 -12 317 callsubr
          -101 hvcurveto
          247 vlineto
          184.02000427246094 23 rlineto
          87 -521.0200042724609 -87 vlineto
          171 -23 rlineto
          -1307.020004272461 vlineto
          -174 132 callgsubr
          rlineto
          948 687.9900054931641 rmoveto
          -257.97999572753906 -153 -89 -204 -76 -88 -2 11 -87 vhcurveto
          630 vlineto
          61 8.009994506835938 -27 callsubr
          9.990005493164062 92 2 rrcurveto
          262 304 callgsubr
          146 callsubr
          227 callgsubr
          -201 vvcurveto
          endchar
        </CharString>
        <CharString name="U">
          -36 callgsubr
          481 callsubr
          807.9999847412109 129 vstem
          207.99000549316406 651 -101 callgsubr
        </CharString>
        <CharString name="Uacute">
          -36 callgsubr
          481 callsubr
          807.9999847412109 129 vstem
          657.9799957275391 17 callsubr
          -339 -309 rlineto
          -449.99000549316406 -1047.979995727539 -101 callgsubr
        </CharString>
        <CharString name="Ubreve">
          -36 callgsubr
          132.99998474121094 135 481 callsubr
          84.99998474121094 95 465 94 69 129 vstem
          465.97999572753906 354 callgsubr
          118 -25 callgsubr
          -169.99000549316406 -56 449 callsubr
          -3 82 callgsubr
          -257.99000549316406 -1303 -101 callgsubr
        </CharString>
        <CharString name="Ucircumflex">
          -36 callgsubr
          368.00999450683594 123.99000549316406 481 callsubr
          807.9999847412109 129 vstem
          453.97999572753906 414 callgsubr
          68.00999450683594 -43 272 -33 callsubr
          -245.99000549316406 -1065 -101 callgsubr
        </CharString>
        <CharString name="Udieresis">
          -36 callgsubr
          186.00999450683594 61 callsubr
          71 callsubr
          60.00999450683594 156 callsubr
          34 129 hintmask 00000000
          hintmask 11111110
          441 67 callsubr
          221 callsubr
          -53 64 vhcurveto
          1 hlineto
          83 101 callgsubr
          227 callsubr
          99 callgsubr
          hintmask 11010010
          -719 -1174 -101 callgsubr
        </CharString>
        <CharString name="Ugrave">
          -36 callgsubr
          481 callsubr
          807.9999847412109 129 vstem
          508.99000549316406 331 callsubr
          0.9900054931640625 13 callgsubr
          -301 -1251 -101 callgsubr
        </CharString>
        <CharString name="Uhungarumlaut">
          -36 callgsubr
          481 callsubr
          807.9999847412109 129 vstem
          433.99000549316406 52 callgsubr
          -711 -1069 -101 callgsubr
        </CharString>
        <CharString name="Umacron">
          -36 callgsubr
          236.99998474121094 126.00999450683594 481 callsubr
          148.99998474121094 540.0200042724609 118.97999572753906 129 vstem
          529.9799957275391 1885 rmoveto
          -126.00999450683594 540.0200042724609 8 callsubr
          -540.0200042724609 vlineto
          -321.99000549316406 -1234 -101 callgsubr
        </CharString>
        <CharString name="Uogonek">
          189 -509.99000549316406 115 379 98.97000122070312 1339.510009765625 99.49000549316406 481 callsubr
          172.99998474121094 163 472 129 vstem
          207.99000549316406 651 rmoveto
          -452.02000427246094 173 -214.97000122070312 396 5 callgsubr
          8 0 1 5 callgsubr
          vhcurveto
          -133.97999572753906 -21 callsubr
          181 callgsubr
          146 callgsubr
          -105 vvcurveto
          -145 360 callgsubr
          -47 9 callgsubr
          411 callsubr
          57.02000427246094 vhcurveto
          86 vlineto
          -24 -48 -58 -17 -54 hhcurveto
          -58 callgsubr
          191 callgsubr
          35 97 373 callgsubr
          106 115 131 70.97999572753906 hvcurveto
          221 callgsubr
          65 147 198 354 vvcurveto
          786 vlineto
          157 23 rlineto
          88 -455 -88 vlineto
          169 -24 rlineto
          -793 vlineto
          -348 -134 -186 -262 -240 -172 9 callsubr
          425 vhcurveto
          778 vlineto
          334 callsubr
          -501 -88 vlineto
          152 -23 rlineto
          -760 vlineto
          endchar
        </CharString>
        <CharString name="Uring">
          -36 callgsubr
          94.00999450683594 336 callgsubr
          334.99998474121094 83 481 callsubr
          92.99998474121094 127 390 8 callsubr
          163 callgsubr
          129 vstem
          473.99000549316406 1867.979995727539 329 callgsubr
          82.99000549316406 164 2 hvcurveto
          149.02000427246094 -45 callsubr
          -109 -51 callsubr
          -202 hhcurveto
          -1 hlineto
          -161 -168 -80 -166 -3 hvcurveto
          325 -172 rmoveto
          -1 hlineto
          -138 -59 81 92 57 callsubr
          -10 callsubr
          -3 callsubr
          9 callsubr
          hvcurveto
          1 hlineto
          135 -3 callsubr
          -75 -99.97999572753906 436 callsubr
          -63 -56 -129 hvcurveto
          -591 -1044.990005493164 -101 callgsubr
        </CharString>
        <CharString name="Utilde">
          -36 callgsubr
          182.99998474121094 391 callsubr
          71 callsubr
          807.9999847412109 129 hintmask 11011100
          633 263 callsubr
          hintmask 11111100
          133 80 152 callsubr
          -97.00999450683594 -116.99000549316406 -25 459 callgsubr
          hintmask 11011100
          -144 -101 227 callgsubr
          -89 -23 hvcurveto
          373 callgsubr
          -47 rlineto
          40 144 callgsubr
          332 callgsubr
          -425 -1228.990005493164 -101 callgsubr
        </CharString>
        <CharString name="V">
          28 1422.990005493164 99 hstemhm
          -30 1415.979995727539 -431 431 hintmask 11000000
          -78 callgsubr
          375 callgsubr
          rmoveto
          536 -1426.979995727539 rlineto
          135 hlineto
          hintmask 10100000
          488 1427.979995727539 218 callgsubr
          22 rlineto
          88 -431 -88 vlineto
          164 -23 -314 -983 58 callsubr
          -283 -86.02000427246094 278 -362.99000549316406 989 69 callgsubr
          22 rlineto
          88 -496.97999572753906 -88 vlineto
          hintmask 11000000
          126.99000549316406 -23 rlineto
          endchar
        </CharString>
        <CharString name="W">
          12 callgsubr
          272 callsubr
          hintmask 01110000
          164 callsubr
          1409.990005493164 -72 callsubr
        </CharString>
        <CharString name="Wacute">
          12 callgsubr
          272 callsubr
          hintmask 01110000
          869.9900054931641 62 callgsubr
          -10 callgsubr
          -52.97999572753906 rlineto
          1 323 callsubr
          -770.0099945068359 -288.99000549316406 -72 callsubr
        </CharString>
        <CharString name="Wcircumflex">
          12 callgsubr
          368.00999450683594 108 callsubr
          272 callsubr
          hintmask 01111000
          665.9900054931641 414 callgsubr
          68 -43 357 callsubr
          217 266 -217 75 45 -265 296 rlineto
          -154 hlineto
          -262 -297.97999572753906 rlineto
          -566 -306.00999450683594 rmoveto
          443 -1420.979995727539 rlineto
          149 hlineto
          326 1071.979995727539 rlineto
          hintmask 10111000
          331 -1071.979995727539 rlineto
          144 callsubr
          hlineto
          hintmask 10110100
          419 1421.990005493164 302 callsubr
          23 rlineto
          88 -485 -88 vlineto
          215 -23 -274 -972 -66.99000549316406 -348 63 callsubr
          348 -289 972 203 23 rlineto
          88 -531.9900054931641 -88 vlineto
          151 -23 56 -172 -246 -800.0099945068359 rlineto
          hintmask 01111000
          -80 -325 -66.99000549316406 325 -298 972 201 265 callgsubr
          141.97999572753906 -24 rlineto
          endchar
        </CharString>
        <CharString name="Wdieresis">
          12 callgsubr
          186.00999450683594 61 callsubr
          650.9900054931641 128 callgsubr
          258.00999450683594 228 215.010009765625 485 hintmask 01111110
          651 110 callgsubr
          84 40 -30 callsubr
          -1037 -415 rmoveto
          443 -1420.979995727539 rlineto
          149 hlineto
          326 1071.979995727539 rlineto
          hintmask 10111110
          331 -1071.979995727539 rlineto
          144 callsubr
          hlineto
          419 1421.990005493164 302 callsubr
          23 rlineto
          88 -485 -88 vlineto
          215 -23 -274 -972 -66.99000549316406 -348 63 callsubr
          348 -289 972 203 23 rlineto
          88 -531.9900054931641 -88 vlineto
          151 -23 56 -172 -246 -800.0099945068359 rlineto
          hintmask 01111110
          -80 -325 -66.99000549316406 325 -298 972 201 265 callgsubr
          141.97999572753906 -24 rlineto
          endchar
        </CharString>
        <CharString name="Wgrave">
          12 callgsubr
          272 callsubr
          hintmask 01110000
          712.9900054931641 331 callsubr
          0.9900054931640625 13 callgsubr
          -613.0099945068359 -492.00999450683594 -72 callsubr
        </CharString>
        <CharString name="X">
          -37 callgsubr
        </CharString>
        <CharString name="Y">
          52 callsubr
          354 87.97999572753906 -47 callsubr
        </CharString>
        <CharString name="Yacute">
          52 callsubr
          541.9799957275391 62 callgsubr
          56.02000427246094 39 callgsubr
          -339 -309 rlineto
          320 callsubr
          -1611 -47 callsubr
        </CharString>
        <CharString name="Ycircumflex">
          443 callgsubr
          368.00999450683594 275 callsubr
          393 callsubr
          110 172 133 445 vstem
          337 414 callgsubr
          68 -43 272 217 266 -217 75.02000427246094 45 -265.00999450683594 296 rlineto
          228 callsubr
          hlineto
          -262 -297.97999572753906 rlineto
          17 -1628.020004272461 -47 callsubr
        </CharString>
        <CharString name="Ydieresis">
          443 callgsubr
          186.00999450683594 61 callsubr
          393 callsubr
          -150 228 32 172 54.010009765625 128 callgsubr
          280 callsubr
          445 hintmask 00000000
          hintmask 11101110
          321.97999572753906 186 callgsubr
          83 233 callsubr
          102 callsubr
          -43 callgsubr
          -80 -40 -66.99000549316406 -69 hvcurveto
          -454 -1737.009994506836 -98 callsubr
          633 -99 callgsubr
          hintmask 11010101
          -85 callsubr
          hintmask 11101110
          -227.99000549316406 -19 rlineto
          endchar
        </CharString>
        <CharString name="Ygrave">
          52 callsubr
          384.97999572753906 1902 rmoveto
          69 -89 235 208 callgsubr
          -30 callgsubr
          -1814.020004272461 -47 callsubr
        </CharString>
        <CharString name="Z">
          15 0 105 callsubr
          hstem
          87 1161.990005493164 vstem
          87 336 callgsubr
          25 callsubr
        </CharString>
        <CharString name="Zacute">
          15 0 105 callsubr
          hstem
          87 1161.990005493164 vstem
          570 62 callgsubr
          56 178 callsubr
          373 callsubr
          89 357 callgsubr
          195 callgsubr
          -483 -1618.990005493164 25 callsubr
        </CharString>
        <CharString name="Zcaron">
          17 0 105 callsubr
          164 115 hstem
          -104 callsubr
          1162.009994506836 vstem
          383 274 callsubr
          247.99000549316406 274 callgsubr
          155 102 callgsubr
          -74 -44 rlineto
          -295.02000427246094 -1886.990005493164 41 callsubr
        </CharString>
        <CharString name="Zdotaccent">
          17 0 105 callsubr
          184.989990234375 252 hstem
          593.9799957275391 228 vstem
          593.9799957275391 1828.990005493164 rmoveto
          -65 92 callsubr
          338 callsubr
          -91 callsubr
          40 60 73 58 -38 61 -70 hvcurveto
          -1 hlineto
          -80 79 callgsubr
          -21 callsubr
          -69 hvcurveto
          -506 -1749 41 callsubr
        </CharString>
        <CharString name="a">
          -183 -80 callgsubr
          187 callsubr
          505 163 hintmask 10111100
          791 681.9799957275391 -97 callsubr
        </CharString>
        <CharString name="aacute">
          -183 -80 callgsubr
          187 callsubr
          505 163 hintmask 10111100
          442 10 callgsubr
          -70 callgsubr
          hlineto
          84 204 callgsubr
          97 callsubr
          217 52.02000427246094 80 497 callsubr
          111 rcurveline
          170 callgsubr
          -320 -394 rlineto
          349 -723 -97 callsubr
        </CharString>
        <CharString name="abreve">
          -183 -80 callgsubr
          203.99998474121094 142 187 callsubr
          -64.010009765625 486 callgsubr
          -85 163 hintmask 0000000000000000
          hintmask 1011101100000000
          298 callsubr
          250 callsubr
          120.02000427246094 -162 210 199.99000549316406 360 callgsubr
          163 176 15 -2 15.009994506835938 -1 -6 callgsubr
          vhcurveto
          -89.99000549316406 396 callgsubr
          -7 4 callsubr
          148 callsubr
          -167 hhcurveto
          -168 -57 350 callgsubr
          456 callsubr
          369 callgsubr
          -3 -63 callgsubr
          0 -76 callsubr
          -63 callgsubr
          vvcurveto
          hintmask 1011110010000000
          569.0200042724609 -1020.0099945068359 -97 callgsubr
        </CharString>
        <CharString name="acircumflex">
          -183 -80 callgsubr
          482.99998474121094 97 callgsubr
          187 callsubr
          505 163 hintmask 10111110
          69 callgsubr
          100 callsubr
          -284 -401 rlineto
          602.0099945068359 -693 rmoveto
          -338 -6 -349 -90.99000549316406 -286 vvcurveto
          -223 -34 callgsubr
          -98.97999572753906 182 173 135 121.97000122070312 44.02000427246094 3 callgsubr
          vhcurveto
          hintmask 01111110
          -105 callsubr
          hintmask 10111110
          -64 vlineto
          -459 vmoveto
          -64 -82 -120.02000427246094 -60 -82 hhcurveto
          148 callsubr
          96 callgsubr
          57.02000427246094 163 156 164 109 341.00999450683594 2 hvcurveto
          -363 vlineto
          endchar
        </CharString>
        <CharString name="acute">
          442 callgsubr
          301 callsubr
          448 vstem
          301 callsubr
          88 callgsubr
          -127 111 rcurveline
          -1 hlineto
          -320 -394 rlineto
          endchar
        </CharString>
        <CharString name="acute.cap">
          445 callgsubr
          545.9900054931641 454 vstem
          546 134 callsubr
          endchar
        </CharString>
        <CharString name="adieresis">
          -89 callsubr
        </CharString>
        <CharString name="ae">
          -89 callgsubr
        </CharString>
        <CharString name="aeacute">
          459 -23 116.97999572753906 -116.97999572753906 121.97000122070312 483.00999450683594 96.00999450683594 73 callsubr
          88 350 128 -97.989990234375 106 187 callsubr
          493 162 callgsubr
          559.0099945068359 162 callgsubr
          hintmask 1010011110000000
          819 88 callgsubr
          -127 111 rcurveline
          -1 hlineto
          -320 -394 rlineto
          hintmask 0110011110000000
          46 -1201.990005493164 rmoveto
          hintmask 1010011110000000
          -141 81 138 -9 callgsubr
          190 hhcurveto
          156 -60 callgsubr
          65.97999572753906 80 145 callgsubr
          hvcurveto
          -33 75 rlineto
          4 callsubr
          -63.02000427246094 -134.99000549316406 408 callsubr
          -196 -163 146 317.00999450683594 -9 hvcurveto
          -1 114 callsubr
          9.009994506835938 -58 callsubr
          vvcurveto
          729 422 callsubr
          1 57 78 vvcurveto
          265 -42 callgsubr
          439 callgsubr
          -94 hvcurveto
          hintmask 0101101110000000
          116 -47 -104.97999572753906 51 -186.02000427246094 hhcurveto
          -184 -229 -112 -47 282 callgsubr
          hvcurveto
          202 callsubr
          -85 rlineto
          43 434 callgsubr
          144 -35 callsubr
          157 hhcurveto
          194 41 -74 -205 hvcurveto
          -71 vlineto
          -326 -6 -349 -93 -285 vvcurveto
          -222.99000549316406 162 496 callsubr
          181 vhcurveto
          hintmask 0110011110000000
          215 140 241 callsubr
          89 63 hvcurveto
          93 475 rmoveto
          285 18 123 99 163 hhcurveto
          159 callgsubr
          72.00999450683594 -126 -167.02000427246094 1 hvcurveto
          -30 -2 -7 callgsubr
          -2 -29 vhcurveto
          -554.9900054931641 hlineto
          -131 -394 rmoveto
          -83 96 callsubr
          -126 -102.02000427246094 358 callsubr
          hhcurveto
          148 callsubr
          96 callgsubr
          56.02000427246094 164 hvcurveto
          hintmask 1001011110000000
          79 callsubr
          164 118 329.00999450683594 -70 callgsubr
          vhcurveto
          111 callgsubr
          vlineto
          hintmask 0110011110000000
          255 callgsubr
          16 -98 122 callsubr
          -58 callgsubr
          vhcurveto
          endchar
        </CharString>
        <CharString name="agrave">
          -183 -80 callgsubr
          187 callsubr
          505 163 hintmask 10111100
          509 callgsubr
          295 callsubr
          52 -81 261 -227 75.02000427246094 275 callgsubr
          114 callgsubr
          59 464 callgsubr
          -128 -111 rlineto
          580.0200042724609 -1006 -97 callsubr
        </CharString>
        <CharString name="amacron">
          -183 -80 callgsubr
          271.00999450683594 9 callgsubr
          187 callsubr
          -3 494 callgsubr
          301 callgsubr
          163 hintmask 00000000
          hintmask 10111010
          281 callsubr
          154 callgsubr
          hintmask 10111101
          508 -875.0099945068359 rmoveto
          -338 -6 -349 -90.99000549316406 -286 vvcurveto
          -223 -34 callgsubr
          -98.97999572753906 182 173 135 121.97000122070312 44.02000427246094 3 callgsubr
          vhcurveto
          hintmask 01111101
          -105 callsubr
          hintmask 10111101
          -64 vlineto
          -459 vmoveto
          -64 -82 -120.02000427246094 -60 -82 hhcurveto
          148 callsubr
          96 callgsubr
          57.02000427246094 163 156 164 109 341.00999450683594 2 hvcurveto
          -363 vlineto
          endchar
        </CharString>
        <CharString name="ampersand">
          219 -17 -15 callgsubr
          -98.99000549316406 94 637.9900054931641 110 627.989990234375 83 hstemhm
          138.99000549316406 -60 callgsubr
          -40.00001525878906 107 callsubr
          424.00999450683594 149 194 134 hintmask 10111011
          1024.979995727539 828.9900054931641 rmoveto
          -100 vlineto
          168 111 callgsubr
          14 219 callgsubr
          -25 -176 -97 -117 rlinecurve
          -55.99000549316406 55 -102.00999450683594 103 -185 206 255 callsubr
          117 rlinecurve
          172 133 181 100 256 vvcurveto
          129 -112 150 -237 vhcurveto
          hintmask 10110111
          -222 -164 -162 493 callsubr
          -150 89 -164 93 314 callgsubr
          hvcurveto
          hintmask 10111011
          -141 -87 -165.99000549316406 299 callsubr
          320 callsubr
          vvcurveto
          -250 211.99000549316406 -137.99000549316406 315 131 callgsubr
          -34 callgsubr
          30.979995727539062 2 callsubr
          119.00999450683594 vhcurveto
          hintmask 01111011
          -86.02000427246094 98 68 -42.97999572753906 94 hhcurveto
          30 69 6 13.979995727539062 173 callgsubr
          hvcurveto
          74.02000427246094 vlineto
          -113 304 callgsubr
          -69 48 -88 82 105 109 65 507 callgsubr
          303 callsubr
          197 175 19.990005493164062 rcurveline
          100 vlineto
          hintmask 10111011
          -477 hlineto
          hintmask 10110111
          -436 12 rmoveto
          312 callsubr
          80 -95.00999450683594 278 callgsubr
          -64 callsubr
          vvcurveto
          136 96.00999450683594 129 callsubr
          123 170.99000549316406 34 -129 58 callsubr
          vhcurveto
          -47 callgsubr
          458 callgsubr
          -82 -81 -178.02000427246094 -137.99000549316406 rrcurveto
          381.00999450683594 -656 rmoveto
          259 callgsubr
          -84 314 callgsubr
          -30 callgsubr
          -94 hhcurveto
          hintmask 10111011
          -247 -122 140 161 174 callgsubr
          279 callsubr
          335 callgsubr
          103 78 hvcurveto
          hintmask 10110111
          13 callsubr
          358 callsubr
          204 408 callgsubr
          137 -127 rrcurveto
          endchar
        </CharString>
        <CharString name="ampersand.sc">
          -299 endchar
        </CharString>
        <CharString name="aogonek">
          -183 -509.99000549316406 115 371.99000549316406 121.97000122070312 -85.99000549316406 76 497.010009765625 -81 callgsubr
          345.00999450683594 97 callgsubr
          187 callsubr
          283 163 59 163 hintmask 11011101
          791 681.9799957275391 rmoveto
          -338 -6 -349 -90.99000549316406 -286 vvcurveto
          -223 -34 callgsubr
          -98.97999572753906 182 173 135 121.97000122070312 44.02000427246094 3 callgsubr
          vhcurveto
          -75 vlineto
          -56 13 111 callgsubr
          27 -6.9900054931640625 vhcurveto
          hintmask 10111111
          -140.99000549316406 -21 callsubr
          -134 -133 -103 160 callsubr
          -26 callgsubr
          34 97 83 433 callsubr
          278 callsubr
          137 59 hvcurveto
          hintmask 10111101
          39 304 callgsubr
          37 -58 callsubr
          25 7 rrcurveto
          76 -128 675 vlineto
          287 -95 109 -278 -188 -216 -117 -36 -55 callsubr
          vhcurveto
          45 84 callgsubr
          rlineto
          1 hlineto
          37.99000549316406 65 135.99000549316406 72.00999450683594 159 hhcurveto
          193 53 -78.00999450683594 -203 hvcurveto
          hintmask 11011101
          -64 vlineto
          -459 vmoveto
          -64 -82 -120.02000427246094 -60 -82 hhcurveto
          148 callsubr
          96 callgsubr
          57.02000427246094 163 156 164 109 341.00999450683594 2 hvcurveto
          -363 vlineto
          endchar
        </CharString>
        <CharString name="approxequal">
          67 128 callsubr
          134 34 134 281.989990234375 134 34.010009765625 497 callgsubr
          hstemhm
          219.99000549316406 960 hintmask 01011000
          220 881.9900054931641 rmoveto
          70 -76 rlineto
          -10 callgsubr
          202 callsubr
          72.00999450683594 220 callsubr
          99 hhcurveto
          hintmask 01111000
          136 -31 callsubr
          -168.02000427246094 175 hhcurveto
          140 114 88 148 callgsubr
          401 callgsubr
          485 callgsubr
          -62.02000427246094 -99 hhcurveto
          hintmask 01011000
          199 callgsubr
          -9 callgsubr
          282 callgsubr
          hvcurveto
          -584.0099945068359 vmoveto
          70 -76 rlineto
          56.02000427246094 202 callsubr
          72.00999450683594 63 99 hhcurveto
          hintmask 11011000
          136 -31 callsubr
          -168 175 hhcurveto
          140 114 88 -7 callsubr
          401 callgsubr
          485 callgsubr
          284 callgsubr
          -99 hhcurveto
          hintmask 01011000
          199 callgsubr
          -85.02000427246094 282 callgsubr
          hvcurveto
          endchar
        </CharString>
        <CharString name="aring">
          -183 -80 callgsubr
          158.00999450683594 486 callsubr
          187 callsubr
          -56 13 callsubr
          393.00999450683594 124 -81 163 hintmask 0000000000000000
          hintmask 1011110110000000
          -11 callgsubr
          1599 rmoveto
          -157 -2 103.02000427246094 178 callgsubr
          -45 callsubr
          -109 117 181 callsubr
          hhcurveto
          -1 hlineto
          -161 -169 -95 -169.99000549316406 -2 hvcurveto
          325 -200 rmoveto
          -1 hlineto
          -138 -61 335 callgsubr
          105 433 callsubr
          75.02000427246094 70 13 callsubr
          hvcurveto
          1 hlineto
          136 56 290 callsubr
          hintmask 1011111001000000
          236 -717 rmoveto
          -338 -6 -349 -90.99000549316406 -286 vvcurveto
          -223 -34 callgsubr
          -98.97999572753906 182 173 135 121.97000122070312 44.02000427246094 3 callgsubr
          vhcurveto
          hintmask 0111111001000000
          -105 callsubr
          hintmask 1011111001000000
          -64 vlineto
          -459 vmoveto
          -64 -82 -120.02000427246094 -60 -82 hhcurveto
          148 callsubr
          96 callgsubr
          57.02000427246094 163 156 164 109 341.00999450683594 2 hvcurveto
          -363 vlineto
          endchar
        </CharString>
        <CharString name="arrowboth">
          1169 330 callsubr
          2374 vstem
          1896.979995727539 53 callgsubr
          rmoveto
          590 589 -590 589.9900054931641 -91 -93.99000549316406 441 490 callgsubr
          -104 11 rlineto
          -1687 hlineto
          -103 -11 441 307 callsubr
          364 callsubr
          1687 hlineto
          105 11 -442 -440 91 -93 rlineto
          endchar
        </CharString>
        <CharString name="arrowdown">
          321 callgsubr
          383 rmoveto
          11.020004272460938 103 rlineto
          961 vlineto
          -135 -1 rlineto
          -960 vlineto
          11 -103 -440.00999450683594 441 -93 -91 589 -590 590 590 -94 91 490 callgsubr
          -441 rlineto
          endchar
        </CharString>
        <CharString name="arrowleft">
          207 330 callsubr
          1304 vstem
          58 callgsubr
          765.9900054931641 rmoveto
          364 callsubr
          959 hlineto
          2 135 rlineto
          -961 hlineto
          -104 -11 442 307 callsubr
          rlineto
          endchar
        </CharString>
        <CharString name="arrowright">
          207 330 callsubr
          1304 vstem
          1416.990005493164 765.9900054931641 rmoveto
          -590.0099945068359 589.9900054931641 -91 -93.99000549316406 442 490 callgsubr
          -104 11 rlineto
          -961 hlineto
          2 -135 rlineto
          959 hlineto
          104 11 -442 -440 91 -93 590.0099945068359 589 rlineto
          endchar
        </CharString>
        <CharString name="arrowup">
          321 callgsubr
          1206.990005493164 rmoveto
          439.00999450683594 -441 94 91 -590 590 -589 -590 93 -91 440.00999450683594 441 -11 -103 rlineto
          -960 vlineto
          135 -1 rlineto
          961 vlineto
          257 callsubr
          103 rlineto
          endchar
        </CharString>
        <CharString name="arrowupdn">
          207 -416.00999450683594 2373 hstem
          696.9900054931641 135 vstem
          1353.990005493164 1367 rmoveto
          -589 589.9900054931641 -590 -589.9900054931641 94 402 callsubr
          439.00999450683594 441 -11 -103 rlineto
          -1687.979995727539 vlineto
          11 -102.02000427246094 490 callgsubr
          441 -94 -91 590 -590 589 590 -93 91 -440.00999450683594 -442.97999572753906 11.020004272460938 104 rlineto
          1687.979995727539 vlineto
          257 callsubr
          104 440.00999450683594 -442 93 91.00999450683594 rlineto
          endchar
        </CharString>
        <CharString name="asciicircum">
          40 272.99000549316406 1257.979995727539 hstem
          456 callgsubr
          992.9900054931641 vstem
          594.9799957275391 1530.979995727539 rmoveto
          -409.99000549316406 -1257.990005493164 rlineto
          174 callgsubr
          hlineto
          363.00999450683594 1082.990005493164 499 callgsubr
          -1082.990005493164 rlineto
          134 hlineto
          -415 1257.990005493164 rlineto
          -168 hlineto
          endchar
        </CharString>
        <CharString name="asciitilde">
          88 463.99000549316406 134 34 134 hstemhm
          224.99000549316406 960 hintmask 01100000
          224.99000549316406 588.9799957275391 rmoveto
          70 -76 rlineto
          56.02000427246094 202 callsubr
          72 63 99 hhcurveto
          hintmask 11100000
          136 -31 callsubr
          -168 175 hhcurveto
          140 377 callgsubr
          88 -7 callsubr
          51 485 callgsubr
          284 callgsubr
          -99 hhcurveto
          hintmask 01100000
          199 callgsubr
          -85.02000427246094 282 callgsubr
          hvcurveto
          endchar
        </CharString>
        <CharString name="asterisk">
          -26 641.9799957275391 1022.9900054931641 hstem
          -60 callgsubr
          967 vstem
          157 callgsubr
          963.9900054931641 rmoveto
          82 -139 257 339 callgsubr
          121 112 -30 -163 -24 -316 162 1 -34 315 -34 162 128 -107 255 -180.97999572753906 82 319 callsubr
          -288.00999450683594 129 -156 51 156 55 283.00999450683594 135.99000549316406 -80 137 -258 -184.02000427246094 -122 238 callgsubr
          31 -42 callsubr
          339 callsubr
          314 rlineto
          -162 hlineto
          122 callsubr
          -315 258 callgsubr
          -162 -126.00999450683594 57 callsubr
          -257.99000549316406 182 -79.00999450683594 -140 288.00999450683594 498 callgsubr
          79 callsubr
          96 callsubr
          315 callgsubr
          -54 -286 432 callgsubr
          rlineto
          endchar
        </CharString>
        <CharString name="at">
          877 -512 116 370 130 -130 148 796.9900054931641 121 383 117 hstemhm
          203.97999572753906 132 292.010009765625 193 callgsubr
          516.0099945068359 107 callgsubr
          434.00999450683594 117 hintmask 1011111110000000
          1260.990005493164 1539.990005493164 rmoveto
          -555 -502 -459 -710 -536.9900054931641 268 -346.00999450683594 484 195 339 callgsubr
          63 83 100 hvcurveto
          -32 70 rlineto
          -56.02000427246094 -82 -190 362 callgsubr
          -147 hhcurveto
          -374.99000549316406 -273 276.00999450683594 521.9700012207031 633.0200042724609 228 callgsubr
          388 452.02000427246094 338.99000549316406 312.00999450683594 -190 -481.02000427246094 hvcurveto
          hintmask 1101111110000000
          -402 -244 -245.99000549316406 -145 -35 -23 -31 callsubr
          169 173 callsubr
          vhcurveto
          14 203 63 331 300 callsubr
          129 -38 13 -28 12 -33 10 -22.020004272460938 5 -10 -30 callgsubr
          -42 callgsubr
          -24 rrcurveto
          39 -70 96 callgsubr
          20 -26 callgsubr
          hhcurveto
          -322 -193.99000549316406 -389 -274 hvcurveto
          hintmask 1011111110000000
          -255 143 -148 134 153 95 callgsubr
          360 callsubr
          234 89 vhcurveto
          hintmask 1101111110000000
          -25 -136 -7 -93.99000549316406 266 callgsubr
          -64 rrcurveto
          299 callsubr
          304 callgsubr
          74.02000427246094 -62.99000549316406 70 hhcurveto
          169 377 276 540 hvcurveto
          hintmask 1011111110000000
          503.99000549316406 -302 246 -408 vhcurveto
          -324.00999450683594 -1418 rmoveto
          95 callsubr
          -39 162 109 callsubr
          249 114 255.02000427246094 407 callgsubr
          73.02000427246094 128 -32 -41 41 hvcurveto
          -12 -26 callgsubr
          -23 -82 -28 -81 rrcurveto
          -261 108 callgsubr
          -151 -227 -102.00999450683594 hhcurveto
          endchar
        </CharString>
        <CharString name="atilde">
          -183 -80 callgsubr
          191.99998474121094 122 51 123 187 callsubr
          505 163 hintmask 10110111
          148.99000549316406 1442 rmoveto
          -91 callsubr
          -47 rlineto
          40 20 40 -7 callsubr
          97 8 callsubr
          30 -173 163 hhcurveto
          hintmask 10111111
          134 78.99000549316406 101 105 33 296 callsubr
          243 callsubr
          hintmask 10110111
          -143 -100 -117 93 callgsubr
          -23 hvcurveto
          642 -760.0200042724609 rmoveto
          -338 -6 -349 -90.99000549316406 -286 vvcurveto
          -223 -34 callgsubr
          -98.97999572753906 182 173 135 121.97000122070312 44.02000427246094 3 callgsubr
          vhcurveto
          hintmask 01110111
          -105 callsubr
          hintmask 10110111
          -64 vlineto
          -459 vmoveto
          -64 -82 -120.02000427246094 -60 -82 hhcurveto
          148 callsubr
          96 callgsubr
          57.02000427246094 163 156 164 109 341.00999450683594 2 hvcurveto
          -363 vlineto
          endchar
        </CharString>
        <CharString name="b">
          -95 -23 104 960.9799957275391 326 callsubr
          256 callgsubr
          165 619.010009765625 218 callsubr
          vstem
          256 callgsubr
          1548.979995727539 rmoveto
          -1492.990005493164 vlineto
          -28 173 callgsubr
          168 -50.99000549316406 186 3 callsubr
          404 callsubr
          -18 rlineto
          165 -637.9900054931641 0 callgsubr
        </CharString>
        <CharString name="backslash">
          -441 -363 1962 hstem
          -35 callsubr
          725.9900054931641 vstem
          226 1599 rmoveto
          -153 hlineto
          572.9900054931641 -1962 rlineto
          153 hlineto
          -572.9900054931641 1962 rlineto
          endchar
        </CharString>
        <CharString name="bar">
          270 callsubr
          -1965.990005493164 147 1965.990005493164 -147 vlineto
          endchar
        </CharString>
        <CharString name="braceleft">
          270 callgsubr
          304.97999572753906 165 -33.989990234375 140 hintmask 00000000
          hintmask 11101000
          436 459.97999572753906 rmoveto
          -155 -131 -138 -190.99000549316406 vvcurveto
          hintmask 11110000
          -165 68 93 callgsubr
          240 91.02000427246094 336 callgsubr
          13 21 76 vhcurveto
          82 vlineto
          -4 -15.020004272460938 355 callgsubr
          -3 -19 hhcurveto
          -128 -81 32 142.97000122070312 hvcurveto
          134 106 182 148 vvcurveto
          hintmask 11101000
          218 callgsubr
          495 callsubr
          70 -133 19 vhcurveto
          133 19 98.02000427246094 -90 callsubr
          130 148 -106 92 callgsubr
          133 vvcurveto
          hintmask 11110000
          140 82.99000549316406 36 8 callsubr
          15 151 -45 callgsubr
          303 callsubr
          500 callsubr
          vhcurveto
          81 vlineto
          452 callsubr
          -76 -79.99000549316406 173 callsubr
          -91.02000427246094 hhcurveto
          -240 -68 93 callgsubr
          -165 hvcurveto
          -191 131 -138 -155.02000427246094 vvcurveto
          hintmask 11101000
          -98 -30 -47 -240 1 vhcurveto
          -142 vlineto
          240 1 30 -65 -99 vvcurveto
          endchar
        </CharString>
        <CharString name="braceright">
          270 callgsubr
          450.99000549316406 140 -34 -60 callgsubr
          hintmask 11101000
          721.9799957275391 -24 rmoveto
          510 callgsubr
          146 callgsubr
          138 155 vvcurveto
          hintmask 11110000
          99 30 65 240 -1 vhcurveto
          142 vlineto
          -240 -1 -30 47 98 155.02000427246094 109 callsubr
          138 191 vvcurveto
          hintmask 11101000
          165 -68 165 callgsubr
          -240 -90.99000549316406 -80 -12.990005493164062 335 callsubr
          -76 vhcurveto
          -81 vlineto
          121 callgsubr
          15 151 -19 callgsubr
          500 callsubr
          hhcurveto
          9 callgsubr
          83 -36 -140 hvcurveto
          -133 -106 -182.99000549316406 -148 vvcurveto
          hintmask 11110000
          -130 98 121 callsubr
          133 -19 vhcurveto
          -133 -19 -98 -70 -129.99000549316406 -148 106 -182 -134 vvcurveto
          hintmask 11101000
          -142.97000122070312 -81 -32 -128 -19 -147 3 4 -15 vhcurveto
          -82 vlineto
          -21 76 80 -13 266 callsubr
          hhcurveto
          240 68 165 callgsubr
          165 hvcurveto
          endchar
        </CharString>
        <CharString name="bracketleft">
          415 callsubr
          407 callgsubr
          148.99000549316406 vstem
          407 callgsubr
          1456.990005493164 rmoveto
          -1546.990005493164 vlineto
          -162 42 -29 126 109 112 16.020004272460938 21 86 vhcurveto
          76 -326 1704 326 75 vlineto
          17 58 callsubr
          -113 144 callgsubr
          -116 hhcurveto
          -127 -41 8 callgsubr
          -160 hvcurveto
          endchar
        </CharString>
        <CharString name="bracketright">
          415 callsubr
          520.9900054931641 148.99000549316406 vstem
          669.9799957275391 1456.990005493164 rmoveto
          160 -41 91 callsubr
          -127 -116 95 callsubr
          132 callgsubr
          -17 -78 vhcurveto
          -75 326 -1704 -326 -76 vlineto
          -21 86 112 -76 callsubr
          109 hhcurveto
          8 callsubr
          204 callgsubr
          29 162 hvcurveto
          1546.990005493164 vlineto
          endchar
        </CharString>
        <CharString name="breve">
          -301 1363.979995727539 142 hstem
          504 callsubr
          486 callgsubr
          vstem
          504 callsubr
          250 callsubr
          278 callgsubr
          -162 210 199.99000549316406 360 callgsubr
          163 176 15 -2 15.009994506835938 265 callsubr
          209 callgsubr
          403 callgsubr
          160 callgsubr
          endchar
        </CharString>
        <CharString name="breve.cap">
          -301 1654.979995727539 135 hstem
          504 callsubr
          95 465 94 vstem
          504 callsubr
          354 callgsubr
          118 -25 callgsubr
          -169.99000549316406 -56 449 callsubr
          -3 82 callgsubr
          endchar
        </CharString>
        <CharString name="breve.r">
          -301 1333.979995727539 98 hstem
          139.97999572753906 349 callgsubr
          vstem
          139.97999572753906 -71 callgsubr
          -5 156 callgsubr
          -48 -124 -167 -168.99000549316406 -55 127 callgsubr
          -4 20 callsubr
          endchar
        </CharString>
        <CharString name="breve.rcap">
          -320 1667.990005493164 -91 callsubr
          hstem
          13 callsubr
          153 447 95 callgsubr
          vstem
          13 callsubr
          367 callsubr
          -47 callgsubr
          -6 callgsubr
          -1 84 callsubr
          vhcurveto
          -123 hlineto
          -25 -4 26 callsubr
          456 callsubr
          258 callgsubr
          301 callgsubr
          60 callgsubr
          endchar
        </CharString>
        <CharString name="brokenbar">
          270 callsubr
          -830.0099945068359 147 830.0099945068359 -147 vlineto
          -1139.020004272461 vmoveto
          -826.9799957275391 147 826.9799957275391 -147 vlineto
          endchar
        </CharString>
        <CharString name="bullet">
          -481 512.9799957275391 359.00999450683594 hstem
          249.99000549316406 341.99000549316406 vstem
          250 692 rmoveto
          -95 -45 callsubr
          373 callsubr
          73 callsubr
          93 hhcurveto
          92 87 81 100 hvcurveto
          318 callsubr
          -1 -69 75 402 callsubr
          hhcurveto
          317 callgsubr
          -86 -76 -104 hvcurveto
          endchar
        </CharString>
        <CharString name="bullet.cap">
          -481 660.9900054931641 358.99000549316406 hstem
          405 callgsubr
          342.02000427246094 vstem
          405 callgsubr
          839.9900054931641 rmoveto
          -95 1 69 -58 callgsubr
          93 hhcurveto
          92.02000427246094 87 81 100 hvcurveto
          103 -1 -69 75 -91.02000427246094 hhcurveto
          317 callgsubr
          -86.02000427246094 -76 -104 hvcurveto
          endchar
        </CharString>
        <CharString name="c">
          -280 -23 344 callgsubr
          526 149.47999572753906 vstem
          637.9900054931641 1167.990005493164 -103 callsubr
        </CharString>
        <CharString name="cacute">
          -280 -23 344 callgsubr
          526 149.47999572753906 vstem
          477.97999572753906 -1 callsubr
          160 -237 -103 callsubr
        </CharString>
        <CharString name="caron">
          -301 1354.990005493164 174 callgsubr
          hstem
          259 callsubr
          710.9799957275391 vstem
          156 55 callgsubr
          95 callgsubr
          hlineto
          278 400 -64.97999572753906 455 callgsubr
          -284.02000427246094 310 240 callgsubr
          -43 rlineto
          endchar
        </CharString>
        <CharString name="caron.cap">
          -644 1691.990005493164 115 hstem
          15.990005493164062 648.9900054931641 vstem
          15.990005493164062 310 callsubr
          79 callsubr
          102 callgsubr
          -74 -44 rlineto
          endchar
        </CharString>
        <CharString name="caronvertical">
          -981 1044.990005493164 632.9900054931641 hstem
          461 callgsubr
          150.00999450683594 vstem
          266 callsubr
          290 callgsubr
          54 389 callsubr
          -37 150 callsubr
          endchar
        </CharString>
</ttFont>
